<?xml version="1.0" encoding="UTF-8" standalone="no"?>
<!-- Created with Inkscape (http://www.inkscape.org/) -->

<svg
   width="9.445838mm"
   height="9.445838mm"
   viewBox="0 0 9.445838 9.445838"
   version="1.1"
   id="svg13504"
   xmlns="http://www.w3.org/2000/svg"
   xmlns:svg="http://www.w3.org/2000/svg">
  <defs
     id="defs13501" />
  <g
     id="layer1"
     transform="translate(91.452729,-707.32862)">
    <g
       id="g64610"
       transform="matrix(0.47229192,0,0,0.47229192,-92.397313,706.38404)"
       style="fill:#ffffff;fill-opacity:1">
      <circle
         cx="12"
         cy="12"
         r="10"
         opacity="0.35"
         id="circle64606"
         style="fill:#ffffff;fill-opacity:1" />
      <path
         d="M 15.203,13.789 14.036,12.28 c -0.35,-0.453 -0.563,-0.997 -0.615,-1.567 L 13,6 C 13,5.448 12.552,5 12,5 v 0 c -0.552,0 -1,0.448 -1,1 l -0.381,4.885 c -0.075,0.96 0.316,1.898 1.051,2.521 l 2.119,1.797 c 0.391,0.391 1.024,0.391 1.414,0 v 0 c 0.391,-0.39 0.391,-1.024 0,-1.414 z"
         id="path64608"
         style="fill:#ffffff;fill-opacity:1" />
    </g>
  </g>
</svg>
