<?xml version="1.0" encoding="UTF-8" standalone="no"?>
<!-- Created with Inkscape (http://www.inkscape.org/) -->

<svg
   width="121.9982mm"
   height="103.2052mm"
   viewBox="0 0 121.9982 103.2052"
   version="1.1"
   id="svg13504"
   xmlns="http://www.w3.org/2000/svg"
   xmlns:svg="http://www.w3.org/2000/svg">
  <defs
     id="defs13501" />
  <g
     id="layer1"
     transform="translate(-121.01459,-454.13524)">
    <path
       id="path142611"
       style="font-style:normal;font-variant:normal;font-weight:normal;font-stretch:normal;font-size:187.5px;line-height:125%;font-family:'DecoType Thuluth';-inkscape-font-specification:'DecoType Thuluth';letter-spacing:0px;word-spacing:0px;opacity:0.08;fill:#1f1f1f;fill-opacity:1;stroke:none;stroke-width:0.294375px;stroke-linecap:butt;stroke-linejoin:miter;stroke-opacity:1"
       d="m 216.60081,454.13523 c 0,0 0.003,0.003 0.003,0.003 0,-0.003 1.1e-4,6e-5 0,-0.003 z m 0.003,0.003 c -0.66103,2.27899 -0.99425,3.40337 -0.99425,3.36619 0,0.32345 0.26136,0.63016 0.80201,0.91726 1.04211,0.53877 2.09603,1.07945 3.15587,1.61851 0.73638,-0.91631 1.10278,-1.9794 1.10278,-3.18326 0,-0.3598 -0.4658,-0.76171 -1.39888,-1.21025 -1.30924,-0.6095 -2.19988,-1.11342 -2.66753,-1.50845 z m -63.53463,0.53536 c -0.0373,0.0791 -0.0881,0.1982 -0.13073,0.29197 0.0711,-0.0929 0.13737,-0.18434 0.21291,-0.27853 z m -0.13073,0.29197 c -2.30299,3.00977 -2.30791,5.32847 -1.62161,6.26525 v 0.0471 c 0.2144,0.27313 0.4939,0.41566 0.79219,0.40822 0.10256,0 0.21421,-0.0283 0.32608,-0.0749 0.20507,-0.0839 0.41044,-0.23762 0.59687,-0.47437 v -0.0558 c 0.32626,-0.43997 0.60589,-1.12868 0.73639,-2.10788 -0.1305,0.29268 -0.29819,0.64974 -0.54055,0.91726 0,0.0185 0,0.0372 -0.0935,0.0558 -0.0932,0.0746 -0.14917,0.13695 -0.23307,0.18913 0,0.009 1.9e-4,0.0185 -0.093,0.0372 -0.0932,0.028 -0.10271,0.0558 -0.16796,0.0651 v 0.007 0.009 c 0,0.007 -0.093,0.007 -0.093,0.009 -0.18642,0.0185 -0.39174,-0.0185 -0.62479,-0.14624 -0.29829,-0.15846 -0.37269,-0.58473 -0.31675,-1.14101 v -0.093 c 0.0932,-0.48006 0.20526,-1.04405 0.39168,-1.61488 0,-0.0746 0.093,-0.14465 0.093,-0.21548 0.0932,-0.14261 0.10274,-0.283 0.14933,-0.42376 0,-0.0652 0.093,-0.143 0.093,-0.21291 0.21132,-0.56152 0.42431,-1.05116 0.60566,-1.45005 z m 47.18005,0.29715 c -0.0193,0.0417 -0.0481,0.1079 -0.0692,0.15399 0.0367,-0.0469 0.0694,-0.0921 0.10646,-0.13951 z m -0.0692,0.15399 c -0.11126,0.14203 -0.22384,0.284 -0.32195,0.42272 0,0.0466 -0.0935,0.0933 -0.10284,0.13902 -2.5671,3.63085 -1.636,6.12301 -0.44752,6.09264 0.0932,0 0.1869,-0.0185 0.2708,-0.0558 0,-0.007 -1.8e-4,-0.009 0.093,-0.0185 0,-0.009 0.093,-0.0285 0.093,-0.0471 0.16777,-0.0839 0.33557,-0.22532 0.49403,-0.42013 v -0.0558 c 0.31692,-0.42691 0.57796,-1.09993 0.71779,-2.05052 -0.13049,0.28432 -0.29824,0.63489 -0.52194,0.894 0,0.0185 1.8e-4,0.0372 -0.093,0.0558 -0.0932,0.0652 -0.13985,0.13055 -0.22375,0.18087 0,0.009 0,0.0279 -0.0936,0.0372 -0.0932,0.028 -0.10218,0.047 -0.16743,0.0656 -0.0932,0.0185 -0.13988,0.0372 -0.21444,0.0372 -0.15849,0.007 -0.34478,-0.0372 -0.54055,-0.14623 -0.28895,-0.1538 -0.3639,-0.56613 -0.308,-1.10638 v -0.093 c 0.0932,-0.46511 0.20532,-1.0142 0.38243,-1.56837 0,-0.0653 -1.8e-4,-0.1393 0.093,-0.20828 0.0932,-0.13888 0.0934,-0.27583 0.14936,-0.41288 0,-0.0652 0.093,-0.13703 0.093,-0.20413 0.22566,-0.60344 0.46527,-1.13826 0.64855,-1.53789 z m -59.38502,-0.0744 0.008,0.008 v -0.008 z m 0.008,0.009 -0.0925,1.47484 c 0.55927,0.42878 0.94636,0.91723 1.21388,1.44899 0,0.0373 -2.1e-4,0.0653 0.093,0.10078 0.18642,0.40267 0.30782,0.82958 0.39171,1.27177 v 0.11213 c 0,0.26006 0.093,0.52438 0.093,0.79375 v 0.11576 c 0,0.93461 -0.0823,1.91132 -0.16123,2.87269 0.23346,-0.82336 0.4052,-1.62862 0.47799,-2.40967 v -0.14264 c 0.16751,-2.10669 -0.36203,-4.03071 -2.01589,-5.6384 z m 1.5379,8.19071 c -0.006,0.0201 -0.0103,0.0402 -0.0161,0.0605 v 0.14986 c 0.006,-0.0697 0.0103,-0.14038 0.0161,-0.21031 z m 82.12883,-8.17833 c -0.44741,0 -0.67127,0.43688 -0.67127,1.31776 0,0.26937 2.3e-4,0.44958 0.13073,0.54001 1.27608,1.43754 1.89682,2.75778 1.86139,3.96153 0,0.61055 0.0932,0.91726 0.24236,0.91726 0.14915,0 0.28909,-0.23376 0.42892,-0.70075 0.17711,-0.59285 0.27956,-1.32823 0.28887,-2.20864 1.36464,0.48472 2.37411,0.77312 3.02101,0.86352 0.85754,0.12772 2.19123,0.13505 3.98838,0.0279 1.88664,-0.10813 3.99598,-0.67101 6.33191,-1.6955 1.28632,-0.55727 1.41631,-0.59362 2.00607,-0.83714 -0.35446,-0.49096 -0.73554,-0.95946 -1.13996,-1.40819 -0.28189,0.12453 -0.18306,0.073 -0.51057,0.21859 -2.33592,1.04204 -4.66161,1.61515 -6.97891,1.72289 -0.44741,0.0185 -0.87622,0.0279 -1.26865,0.0279 -2.82064,0 -5.26365,-0.86128 -7.32928,-2.58591 -0.1398,-0.10814 -0.27982,-0.16124 -0.401,-0.16124 z m -15.42283,0.31472 -0.22635,0.0135 c 0.006,0.0407 0.008,0.0817 0.0135,0.12247 0.0712,-0.0449 0.14295,-0.0877 0.21291,-0.13591 z m -0.21291,0.13592 c -0.51675,0.32597 -1.05087,0.6024 -1.40972,1.32085 -0.69911,1.20534 -1.03653,2.53051 -1.48675,3.81887 0.0932,0.14449 0.12129,0.26657 0.18656,0.37002 v 0.0465 c 0,0.028 -1.6e-4,0.0562 0.093,0.0842 v 0.0372 c 0,0.0466 0.0934,0.0931 0.13073,0.12764 v 0.0279 c 0.0932,0.0652 0.18637,0.11861 0.27958,0.15401 v 0.0185 c 0.15843,0.0559 0.34481,0.0651 0.53123,0.0651 0.0932,0 0.18635,-0.007 0.27956,-0.009 0.19577,-0.009 0.39177,-0.0378 0.61547,-0.047 0,0 0.093,-8e-5 0.11161,-0.007 0.11186,-0.007 0.2328,-0.007 0.35398,-0.007 -0.8296,1.43576 -2.10645,1.98126 -3.27628,2.7404 0.0932,-0.0185 0.13062,-0.047 0.19587,-0.0656 0.99272,-0.32065 1.98535,-0.56867 2.9781,-1.05214 0.0932,-0.12771 0.14917,-0.25067 0.22376,-0.36999 0.49403,-0.83799 0.85759,-1.52657 1.16427,-2.50476 l -0.33539,-0.80926 -2.19985,0.0279 -0.37312,-0.50488 c 0.4847,-0.83333 0.96036,-1.5386 1.56065,-1.44539 0,0.007 0.093,0.009 0.093,0.0185 v 0.009 0.009 c 0,0.009 0.093,0.0279 0.10232,0.0465 v -0.0651 -0.0651 c 0.26326,-0.65554 0.26701,-1.31485 0.18139,-1.97041 z m -30.87822,-0.11422 -0.006,0.004 -0.093,1.08675 c 0.10255,0.0746 0.19566,0.16262 0.28887,0.24652 0,0.0185 0.093,0.0372 0.093,0.0651 0.0932,0.0839 0.15851,0.17158 0.23307,0.26199 0,0.0185 0,0.0465 0.0935,0.0651 0.87326,1.1897 0.6685,2.76368 0.53589,4.28192 0.12226,-0.41884 0.21235,-0.83267 0.27493,-1.23767 v -0.10438 c 0.0932,-0.63106 0.11186,-1.24177 0,-1.82676 v -0.10076 c 0,-0.0969 1.8e-4,-0.19378 -0.093,-0.28887 v -0.093 c -0.0932,-0.19015 -0.10271,-0.37962 -0.16796,-0.56327 v -0.093 c -0.24236,-0.60868 -0.61526,-1.17856 -1.15961,-1.70326 z m 1.14567,6.01102 c -0.005,0.018 -0.008,0.0353 -0.014,0.0532 v 0.10851 c 0.005,-0.0536 0.009,-0.10798 0.014,-0.16174 z m -44.20454,-5.97485 0.0455,0.005 c -0.11184,0.007 -0.24204,0.0461 -0.39119,0.11885 0,0.0185 -0.0935,0.0377 -0.0935,0.047 -0.29829,0.17616 -0.65241,0.49551 -1.06815,0.98237 -0.14914,0.33369 -0.15862,0.66746 -0.16796,1.002 0.26102,0.34769 0.54092,0.68612 0.94827,0.94052 0,0.0185 0.093,0.0372 0.093,0.0558 0,0.0185 0.0936,0.0372 0.0936,0.0465 -0.14915,0.44836 -0.67141,1.04304 -1.36118,1.68053 -0.0932,0.0653 -0.13986,0.12843 -0.21444,0.19275 -0.0932,0.0652 -0.14917,0.13165 -0.22376,0.1969 -0.0932,0.0652 -0.1492,0.1311 -0.23307,0.19635 -1.47651,1.24169 -3.35942,2.52256 -4.28501,3.12592 0.0932,-0.0373 0.13991,-0.0653 0.20516,-0.10078 1.33855,-0.63852 2.88052,-1.52398 4.27778,-2.63602 0.0932,-0.0559 0.1492,-0.11761 0.22376,-0.17724 0.80164,-0.65718 1.54813,-1.39261 2.16988,-2.19676 l 0.6899,0.18087 0.093,-1.00563 c -0.10255,-0.10721 -0.25191,-0.0931 -0.3824,-0.12298 0.11184,-0.36353 0.18647,-0.70313 0.22375,-1.00615 v -0.11163 c 0.0932,-0.8445 -0.10239,-1.38912 -0.54983,-1.41438 z m 28.77862,0.0259 -0.0114,0.007 c -0.1864,0.10253 -0.34488,0.23657 -0.48471,0.39688 0,0.0185 1.8e-4,0.0372 -0.093,0.0558 0,0.0373 -0.093,0.0748 -0.093,0.11576 v 0.0558 c -0.0932,0.0997 -0.12134,0.20532 -0.17724,0.31626 v 0.0651 c -0.0932,0.20132 -0.1678,0.41659 -0.23305,0.63564 v 0.14623 0.15039 c -0.13983,0.50615 -0.22349,1.15041 -0.3633,1.65674 -0.24238,-0.55835 -0.51289,-1.16541 -0.86712,-1.69913 0,-0.0373 -0.093,-0.075 -0.093,-0.1085 -0.0932,-0.13983 -0.19614,-0.27197 -0.30801,-0.39688 v -0.0465 c -0.0932,-0.0746 -0.14919,-0.15026 -0.22375,-0.22016 0,-0.009 2.1e-4,-0.0279 -0.093,-0.0465 -0.26098,-0.23024 -0.56872,-0.41214 -0.93225,-0.52401 -0.22371,0.40455 -0.33523,0.74684 -0.40048,1.09863 0.19577,0.47353 0.57772,0.70372 0.8387,0.81651 0.1678,-0.10626 0.31703,-0.14391 0.44752,-0.13179 0.0932,0.007 0.12134,0.019 0.16796,0.047 0.57793,0.26937 0.83897,1.58814 1.05521,2.41223 v 0.11163 c 0,0.10811 0.093,0.20738 0.093,0.2894 0.24238,-0.36631 0.2704,-0.62179 0.44751,-1.14464 0,0 0.38222,-1.432 0.47543,-1.74614 0.11187,-0.35886 0.46562,-1.29469 0.69866,-1.28675 l 0.0935,0.007 c 0,0.007 0.093,0.009 0.093,0.0185 0.11187,0.028 0.18642,0.0747 0.25167,0.13901 v 0.018 c 0.12118,0.13142 0.18629,0.30954 0.30747,0.44752 0.10256,-0.17804 0.19577,-0.31237 0.24236,-0.44752 v -0.0279 -0.14677 -0.0372 c 0,-0.11652 2.1e-4,-0.24685 -0.11163,-0.41651 -0.0932,-0.16406 -0.20534,-0.31509 -0.37308,-0.42788 v -0.018 c -0.0932,-0.0559 -0.21416,-0.10451 -0.35399,-0.13436 z m 28.06753,0.0444 -0.13333,0.004 c 0.0315,0.007 0.0585,0.0175 0.0884,0.0254 -0.1772,0.10184 -0.34063,0.21984 -0.48628,0.35605 -0.0932,0.0466 -0.10271,0.10451 -0.15865,0.15764 -0.48471,0.53599 -0.78285,1.26087 -1.01028,2.01898 0,0.0746 2e-5,0.15145 -0.0935,0.22789 0,0.0746 1.6e-4,0.15457 -0.093,0.23101 -0.2237,0.78859 -0.35404,1.7971 -0.56843,2.58588 -0.3542,-0.8119 -0.74602,-1.69572 -1.23817,-2.48563 0,-0.0559 -0.093,-0.11089 -0.10232,-0.1659 -0.28895,-0.4437 -0.62439,-0.8523 -1.00562,-1.19888 0,-0.0185 -0.0935,-0.0465 -0.0935,-0.0651 -0.41945,-0.35885 -0.89448,-0.64495 -1.4454,-0.82113 -0.0932,0.11837 -0.12131,0.23487 -0.17724,0.34673 0,0.0373 1.6e-4,0.0745 -0.093,0.108 -0.0932,0.18363 -0.15851,0.36211 -0.21444,0.53642 v 0.10335 c -0.0932,0.20693 -0.12139,0.4109 -0.14936,0.61597 0.31692,0.73732 0.91329,1.09964 1.31413,1.2759 0.28895,-0.18362 0.5411,-0.23884 0.76481,-0.1969 0.0932,0.007 0.0929,0.0185 0.13023,0.0372 1.0328,0.38219 1.4429,2.87853 1.7999,4.12739 0,0.0559 0,0.10282 0.0935,0.15036 v 0.13489 c 0.37288,-0.57047 0.41902,-0.96547 0.68935,-1.78025 0,0 0.59658,-2.23139 0.7457,-2.72076 0.1678,-0.55835 0.72737,-2.02012 1.09088,-2.00763 0.77367,0.0185 0.84817,0.60272 1.16789,0.98237 0.15846,-0.27872 0.298,-0.48374 0.37259,-0.6935 v -0.0465 -0.23098 -0.0465 c 0,-0.18082 -0.0929,-0.38423 -0.16743,-0.64802 -0.22137,-0.38878 -0.49712,-0.73652 -1.07124,-0.88884 0.0151,-0.009 0.0285,-0.0193 0.0439,-0.0279 z m -22.56348,2.25671 -0.0326,0.004 c 0.005,0 0.0108,0.003 0.0161,0.004 -0.0742,0.0143 -0.099,0.0557 -0.14161,0.12816 -0.46606,0.77274 -0.65286,1.77776 -0.56896,3.01739 0,0.23304 0.14923,0.55869 0.45683,0.97152 0.30758,0.39524 0.45683,0.68863 0.45683,0.88625 0,0.23305 -0.29797,0.45863 -0.89453,0.6749 -0.50337,0.17894 -0.93239,0.26921 -1.29035,0.26921 -1.15025,0 -2.13278,-0.54059 -2.94092,-1.61851 0.41013,-1.38348 0.62479,-2.16326 0.62479,-2.34299 0,-0.19761 -0.0934,-0.29662 -0.15867,-0.29662 -0.0932,0.0185 -0.14917,0.0469 -0.21445,0.0842 -0.69908,0.6646 -1.2378,1.40851 -1.61438,2.23501 -1.02349,2.28187 -2.51582,3.42614 -4.47516,3.42614 -1.43642,0 -2.55045,-0.79327 -3.3409,-2.374 0.1305,-0.77274 0.19585,-1.24595 0.21448,-1.42576 v -0.43201 c 0,-0.2871 -0.0932,-0.43151 -0.24236,-0.43151 -0.10255,0 -0.29808,0.099 -0.58706,0.29663 -2.31727,1.55712 -5.45208,3.34205 -6.67038,3.35639 v -0.0185 c 0,0.007 -0.0935,0.009 -0.10285,0.0185 l -0.093,-0.007 v 0.009 c -1.50914,0.20881 -1.98435,0.31237 -2.09341,0.34314 v -0.0185 c -3.73785,1.0781 -6.17181,1.9931 -7.30343,2.74764 -0.19574,0.19762 -0.43812,0.79262 -0.72708,1.78078 -0.25167,0.88088 -0.38189,1.38086 -0.38189,1.50688 0.0932,0.68234 0.58676,1.2233 1.59162,1.61851 0.36351,0.14356 2.30175,0.68406 5.8224,1.61851 2.28187,0.61055 3.42251,1.18356 3.42251,1.72289 0,0.23304 -0.98144,0.93588 -2.93986,2.10373 -2.19236,1.2937 -4.47328,2.44319 -6.84556,3.44942 -4.258,1.7965 -3.55878,1.51823 -6.14641,1.51823 -2.78426,0 -5.0569,-0.80152 -6.81768,-2.40088 -1.85031,-1.67095 -2.77759,-3.90638 -2.77759,-6.70914 0,-1.41954 0.31678,-3.28959 0.94411,-5.60742 0.3542,-1.23973 0.72692,-2.47939 1.10538,-3.71914 0.17711,-0.73639 0.19608,-1.10226 0.0935,-1.10226 -0.0932,0 -0.26096,0.22199 -0.51263,0.67128 -1.72016,3.12142 -2.67372,6.4793 -2.86909,10.06707 v 2.28825 c 0.20471,3.96235 1.75202,6.8416 4.67619,8.6129 1.83256,1.11393 3.75309,1.67278 5.76556,1.67278 3.01919,0 3.14841,-0.19024 8.62841,-2.92129 5.28241,-2.6412 8.17208,-4.55221 8.67545,-5.73815 0.6618,-1.58099 0.99838,-2.81147 0.99838,-3.69176 0,-0.98827 -0.12094,-1.68206 -0.35399,-2.07738 -0.34488,-0.59285 -1.10315,-1.05727 -2.28978,-1.3989 -2.29955,-0.62918 -3.85411,-1.04365 -4.66225,-1.24127 2.13736,-0.92654 3.80759,-1.50828 5.01004,-1.74561 1.34507,-0.0185 2.23071,-0.59632 2.36212,-0.7669 1.00487,-0.61521 2.30164,-1.52498 3.88814,-2.73264 -0.10256,1.54519 0.26106,2.73987 1.10278,3.58428 0.75501,0.73639 1.71855,1.10588 2.8856,1.10588 1.59954,0 2.8031,-0.56782 3.61219,-1.69963 0.62453,-0.87992 1.10633,-1.65174 1.42886,-2.31616 0.46606,0.53877 0.92271,1.08471 1.372,1.64177 0.66183,0.61055 1.42152,0.91725 2.26602,0.91725 2.69481,0 4.0418,-1.91362 4.04368,-5.73815 v -0.007 c 0,-0.77179 -0.16774,-1.59012 -0.51263,-2.45102 -0.31946,-0.86254 -0.61217,-1.2963 -0.87799,-1.31413 0.006,0 0.008,-0.006 0.0156,-0.007 z m 73.53659,0.40616 c -0.81788,0.6898 -1.36183,1.20981 -1.59938,1.5322 -0.38219,0.48472 -0.56896,0.82691 -0.56896,1.02526 0,0.0932 0.0934,0.13439 0.14005,0.13439 0.23302,0 0.59655,-0.26133 1.07847,-0.7824 0.4568,-0.40847 0.91739,-0.80553 1.37718,-1.20407 -0.13441,-0.24048 -0.28162,-0.47244 -0.42736,-0.70538 z m -119.28728,0.61341 c -0.10253,0.23305 -0.24249,0.51649 -0.42892,0.72811 v 0.0465 c -0.0656,0.0393 -0.0905,0.0725 -0.12454,0.10594 -0.19902,0.40508 -0.38539,0.81632 -0.55192,1.2392 0.0546,-0.0161 0.10919,-0.0182 0.16383,-0.0455 0.13983,-0.0746 0.27048,-0.18465 0.401,-0.34311 v -0.0465 c 0.0932,-0.10626 0.15851,-0.23424 0.22376,-0.37778 v -0.0651 c 0,-0.0652 0.093,-0.13324 0.093,-0.2041 v -0.0744 c 0,-0.0746 0.093,-0.15041 0.093,-0.23151 v -0.0837 c 0.0932,-0.19479 0.0935,-0.41124 0.13076,-0.64802 z m 115.20431,3.1011 -0.0429,0.005 c -0.41015,0.28336 -0.86701,0.45167 -1.15599,1.03248 0,0.0559 -0.093,0.10811 -0.093,0.16124 v 0.0842 c 0,0.0559 -0.0935,0.11092 -0.0935,0.1659 v 0.0837 c -0.33558,0.71866 -0.54052,1.47982 -0.80151,2.22364 0.0932,0.14634 0.13063,0.26088 0.19587,0.35036 v 0.0279 c 0.0932,0.0839 0.14915,0.14396 0.23305,0.185 v 0.009 c 0.16777,0.0746 0.36335,0.0837 0.58706,0.0744 l 0.0935,-0.007 c 0,-0.007 0.0929,-0.007 0.13951,-0.009 0.0932,-0.007 0.0934,-0.007 0.14936,-0.009 0.14915,-0.009 0.31692,-0.018 0.48472,-0.018 -0.58727,1.02023 -1.50112,1.4069 -2.33164,1.94614 0.0932,-0.0185 0.0934,-0.0279 0.14004,-0.0465 0.70839,-0.22836 1.41055,-0.40378 2.11616,-0.74774 0.0932,-0.0932 0.10219,-0.17719 0.15812,-0.26202 0.3542,-0.59563 0.61553,-1.08516 0.82992,-1.78025 l -0.24236,-0.57411 -1.56062,0.0185 -0.26098,-0.35812 c 0.29829,-0.51826 0.59676,-0.96565 0.95189,-1.02476 v -0.007 c 0,-0.007 0.093,-0.007 0.11162,0 0,0.007 0.093,0.009 0.093,0.0185 v 0.007 0.007 c 0,0.009 0.0935,0.0191 0.0935,0.0284 0.12118,-0.26474 0.18648,-0.52954 0.20513,-0.79426 v -0.0961 -0.0998 -0.2005 z m -15.94733,0.42995 0.0114,0.009 c -0.14914,0 -0.2608,0.19193 -0.33538,0.57412 -0.13981,1.14996 -0.24225,2.06449 -0.29819,2.74765 -0.0932,0.19854 0.1025,0.29662 0.51263,0.29662 0.62453,1.88664 1.76059,3.77463 3.39463,5.66116 1.72538,1.9763 2.71251,3.27914 2.96416,3.90776 0.13983,0.34118 -0.57764,0.94999 -2.15387,1.83039 -1.76173,0.95189 -3.45115,1.42989 -5.06841,1.42989 -0.68977,-0.007 -1.38578,-0.20323 -2.0774,-0.59378 -0.58727,-0.43159 -0.99399,-0.90498 -1.21026,-1.42576 -0.21439,-0.52107 -0.36309,-0.909 -0.4563,-1.16012 0.17711,-0.55742 0.22344,-0.89921 0.13023,-1.02476 -0.10253,-0.14449 -0.38198,-0.0469 -0.83873,0.29612 -0.63384,1.1678 -1.00791,1.9249 -1.13377,2.26653 -0.85754,1.67095 -1.95741,2.4329 -3.28663,2.28925 -0.8296,-0.0932 -1.66129,-0.72091 -2.50579,-1.88878 0.39148,-1.25587 0.59688,-1.89156 0.59688,-1.91151 0,-0.12583 -0.0934,-0.18912 -0.15865,-0.18912 -0.0932,0 -0.1584,0.0278 -0.27027,0.0837 -0.79229,0.79047 -1.38594,1.51646 -1.78025,2.18126 -0.44741,0.73638 -1.1132,1.39446 -1.99316,1.9694 -0.54065,0.33371 -1.07193,0.57351 -1.59578,0.7245 -0.18645,-1.42353 -0.36343,-2.79553 -0.54054,-4.07003 0.9135,1.00735 1.39446,1.5263 1.42989,1.56115 0.14914,0.10813 0.2613,0.16121 0.35451,0.16121 0.11187,0 0.15812,-0.0932 0.15812,-0.27025 0,-1.04203 -0.93208,-3.31356 -2.77863,-6.81717 -0.32623,-0.8268 -0.56856,-1.24127 -0.75499,-1.24127 -0.0932,0 -0.13068,0.0651 -0.15864,0.18915 -0.57793,1.7966 -0.86662,2.93685 -0.86662,3.42202 0,0.25167 0.0934,0.45021 0.15864,0.59375 0.28898,0.39524 0.44744,0.64778 0.48472,0.75499 0.11184,2.09087 0.26059,4.03336 0.4377,5.83118 -1.21272,-0.24794 -2.14103,-1.10408 -2.78328,-2.56678 0.17711,-0.61055 0.3171,-1.07513 0.401,-1.39888 0.10253,-0.34115 0.15814,-0.58459 0.15814,-0.72813 0,-0.0746 1.9e-4,-0.13417 -0.093,-0.16587 0,0.0466 -0.27037,0.16852 -0.71779,0.35399 -3.50482,1.84211 -6.19958,2.76646 -8.08529,2.77503 -0.44744,0 -1.08471,-0.24344 -1.91151,-0.72814 -0.8296,-0.50336 -1.3489,-0.93104 -1.56424,-1.29087 -0.19574,-0.37751 -0.34502,-0.69257 -0.42892,-0.94414 0.13983,-0.41294 0.21445,-0.74687 0.21445,-0.99838 0,-0.70003 -0.44736,-0.46577 -1.34409,0.70125 -0.0932,0.0932 -0.29842,0.50409 -0.67127,1.24074 -0.31692,0.62825 -0.59643,1.01211 -0.81082,1.15602 -0.81097,0.57512 -2.05753,0.86352 -3.74655,0.86352 -0.44741,0 -1.08781,-0.24344 -1.9146,-0.72814 -0.82961,-0.50336 -1.34583,-0.93106 -1.56115,-1.29087 -0.19577,-0.37751 -0.34505,-0.69255 -0.42892,-0.94414 0.13981,-0.41294 0.21447,-0.74687 0.21447,-0.99838 0,-0.70001 -0.44738,-0.4663 -1.34876,0.70072 -0.0932,0.0932 -0.29843,0.50459 -0.67128,1.24127 -0.32626,0.62825 -0.5964,1.01211 -0.81079,1.15602 -0.81094,0.57515 -2.057,0.86299 -3.74602,0.86299 -0.44744,0 -1.08514,-0.24291 -1.91101,-0.72761 -0.8296,-0.50336 -1.35048,-0.93556 -1.5658,-1.295 -0.19577,-0.37751 -0.34502,-0.68903 -0.42892,-0.94051 0.13981,-0.41294 0.21447,-0.74637 0.21447,-0.99788 0,-0.70001 -0.44751,-0.46633 -1.34514,0.70072 -0.0932,0.0932 -0.29842,0.50462 -0.67127,1.24127 -0.31692,0.62825 -0.59643,1.01211 -0.81082,1.15602 -0.81095,0.57515 -2.05655,0.86299 -3.74652,0.86299 v -0.007 c -0.46607,0.0185 -0.9983,0.0279 -1.59113,0.0279 -0.42878,-1.40145 -1.24719,-2.7218 -2.45152,-3.96153 -1.15025,-1.18586 -2.08217,-1.78075 -2.80085,-1.78075 -1.00672,0 -1.97911,0.67212 -2.91405,2.01951 -0.93398,1.32951 -1.40845,2.74934 -1.42523,4.25866 0,0.53877 0.22376,1.0973 0.69916,1.67224 0.39151,0.50337 0.8299,0.85379 1.29503,1.05212 0.84826,0.3598 2.97633,0.54004 6.3898,0.54004 0.15846,0.32345 0.28868,0.69807 0.37258,1.12911 0,0.6646 -2.14571,2.44435 -6.33193,5.33715 -4.29434,2.96455 -8.43608,5.45282 -12.4256,7.46519 -3.25128,1.65296 -6.38743,3.13568 -9.40665,4.44727 -0.98711,0.43159 -1.47952,0.76407 -1.47949,0.99785 0,0.10814 0.13073,0.16124 0.3824,0.16124 0.39148,0 0.91329,-0.11732 1.56115,-0.35036 3.10771,-1.14988 6.63225,-2.01094 10.56679,-2.58588 1.90434,-0.77274 4.3107,-2.10185 7.22178,-3.98841 3.23355,-2.12013 6.06451,-4.28789 8.48992,-6.49779 1.20338,-1.32962 1.98371,-2.95614 2.34352,-4.87876 0.13049,-0.62918 0.20511,-1.03974 0.24239,-1.23714 0.44741,0 0.87614,-0.0185 1.26761,-0.0558 1.3833,0 2.56882,-0.47392 3.55688,-1.42626 0.48471,-0.46699 1.12511,-1.51205 1.91463,-3.12902 -0.0932,0.84452 0.10255,1.55609 0.48472,2.13114 0.46606,0.68233 1.20657,1.27325 2.21329,1.77662 0.85757,0.43157 1.5604,0.64752 2.10013,0.64752 1.38329,0 2.56884,-0.47342 3.5569,-1.42576 0.48471,-0.46702 1.12424,-1.51255 1.91563,-3.12952 -0.0932,0.84452 0.1119,1.55612 0.48472,2.13114 0.46606,0.68233 1.2024,1.27325 2.20816,1.77662 0.86688,0.43157 1.56599,0.64802 2.10476,0.64802 1.38329,0 2.56884,-0.47337 3.5569,-1.42573 0.48472,-0.46699 1.1216,-1.51257 1.91204,-3.12955 -0.0932,0.8445 0.11131,1.5561 0.48419,2.13114 0.46606,0.68231 1.20652,1.27328 2.21228,1.77665 0.84826,0.42413 1.53813,0.64056 2.07222,0.64802 0.38219,0 1.34223,-0.31504 2.88769,-0.94414 1.79623,-0.71869 3.18029,-1.46288 4.15065,-2.23552 -0.11187,1.63505 0.22365,2.91973 1.0206,3.85403 0.71776,0.8445 1.70117,1.26762 2.9409,1.26762 0.19574,0 0.39179,-0.009 0.58756,-0.0372 1.66759,12.90952 2.50888,20.22041 2.50888,21.80487 0,0.23394 2.2e-4,0.37838 -0.093,0.4315 -0.3915,0.84453 -0.88537,1.42981 -1.45677,1.75337 -0.71776,0.43156 -1.8226,0.64802 -3.31401,0.64802 -2.33688,0 -4.27482,-0.89202 -5.8203,-2.67063 -0.13981,-0.16218 -0.79227,-1.1852 -1.94252,-3.07165 -0.73639,-1.18586 -1.43457,-1.78025 -2.10013,-1.78025 -1.31151,0 -2.68542,0.7651 -4.12276,2.29288 -1.29382,1.36546 -2.40187,3.12788 -3.31814,5.28392 -0.61521,1.49132 -1.2286,2.98775 -1.85778,4.49688 -0.68045,1.2577 -1.5626,1.88878 -2.64014,1.88878 -1.23976,0 -2.23046,-1.02341 -2.96778,-3.07165 -0.59658,-1.59909 -0.88521,-3.23469 -0.88521,-4.90564 0,-0.41294 -1.6e-4,-0.94472 0.093,-1.59163 0,-0.46326 0.093,-0.89953 0.093,-1.31413 0.70842,0.73731 1.69267,1.42425 2.94452,2.05774 1.36557,0.66461 2.38929,0.99788 3.07163,0.99788 0.61521,0 1.15109,-0.44186 1.61904,-1.32189 0.41013,-0.82682 0.62476,-1.6964 0.62476,-2.61276 0,-1.7967 -0.27067,-3.29726 -0.81132,-4.50101 -0.62452,-1.41954 -1.52953,-2.13114 -2.69751,-2.13114 -1.43735,0 -2.76727,1.158 -3.98838,3.47575 -0.0932,-0.12586 -0.14914,-0.18912 -0.24236,-0.18912 -0.19574,0 -0.77401,0.69371 -1.72291,2.07738 -1.00579,1.47351 -1.84835,2.35227 -2.53161,2.63964 -1.09525,0.44931 -2.25735,0.6749 -3.47938,0.6749 -2.33593,0 -4.27392,-0.888 -5.82033,-2.6665 -0.13983,-0.16126 -0.79216,-1.1851 -1.94149,-3.07165 -0.73639,-1.18595 -1.43552,-1.78078 -2.10013,-1.78078 -1.31244,0 -2.68642,0.7616 -4.12377,2.28928 -1.29381,1.36559 -2.39784,3.1278 -3.31504,5.28391 -0.6059,1.49122 -1.23113,2.9918 -1.86034,4.50101 -0.68045,1.25775 -1.5631,1.88826 -2.64067,1.88826 -1.23881,0 -2.22674,-1.02701 -2.96312,-3.07528 -0.59656,-1.59906 -0.88575,-3.23109 -0.88575,-4.90202 0,-0.41296 -1.6e-4,-0.9449 0.093,-1.59162 0.0932,-0.8445 0.12141,-1.6101 0.14004,-2.29288 0,-0.8445 -0.0931,-1.26402 -0.29818,-1.26402 -0.2144,0 -0.38214,0.36901 -0.51263,1.10588 -0.34489,1.97649 -0.51263,3.54565 -0.51263,4.71342 0,2.92867 0.59642,5.41112 1.78024,7.4414 1.13255,1.90452 2.41721,2.85615 3.85456,2.85615 1.16798,0 2.17234,-0.90172 3.01686,-2.69803 0.79229,-1.92255 1.5708,-3.84239 2.34355,-5.76501 0.44743,-0.98825 1.26854,-2.00276 2.45514,-3.0448 1.20246,-1.06003 2.16385,-1.56416 2.88251,-1.51048 0.54065,0.0373 1.06132,0.55833 1.56374,1.56475 0.73636,1.43735 1.37321,2.45134 1.91201,3.04427 0.51266,0.55927 1.07019,1.03317 1.67328,1.42213 -0.0932,0.34769 -0.13073,0.47435 -0.14005,0.35036 0,0.59286 0.32642,2.83769 0.91366,6.73653 1.04212,7.60024 1.7775,13.14326 2.20813,16.62896 0.19577,1.45534 0.33576,3.03752 0.40101,4.74443 0.0932,1.97641 0.0929,3.65696 -0.10285,5.04052 -0.0932,0.70096 -0.70844,1.31871 -1.85777,1.85777 -1.15025,0.53878 -2.38027,0.80873 -3.69176,0.80873 v 0.0103 c -1.61229,-0.007 -2.53576,-1.83661 -2.66133,-1.98025 -0.77367,-0.95226 -1.36369,0.0373 -1.77663,-0.55086 -0.15846,-0.12772 -0.28919,-0.10822 -0.3824,0.0558 0,0.0188 -0.48474,1.2578 -0.48474,1.54564 0,0.17992 0,0.30269 0.0935,0.37725 0.90802,1.3621 1.58755,2.50756 2.04536,3.44214 l 1.76371,-0.47437 c -0.0322,-0.2159 -0.0574,-0.42788 -0.0992,-0.64958 0.12547,0.0563 0.26773,0.29012 0.41651,0.56431 l 6.5133,-1.75131 c 0.74504,-1.25158 1.20348,-2.82559 1.36221,-4.73926 0.38063,1.57567 0.85876,2.88686 1.41335,3.99253 l 3.04115,-0.81753 c -0.28234,-0.2366 -0.56375,-0.50893 -0.84336,-0.83199 -1.33017,-1.5272 -2.16361,-3.65471 -2.50476,-6.38566 -0.27033,-2.69505 -0.54047,-5.38134 -0.81079,-8.05842 -0.50334,-4.94106 -1.08879,-9.50629 -1.75339,-13.69269 -0.33557,-2.10436 -0.634,-3.84699 -0.92295,-5.24518 0.96102,0.27406 2.00337,0.38873 3.13314,0.34677 1.77851,0 3.32492,-0.75285 4.63643,-2.26187 0.29829,-0.32438 0.82923,-1.11853 1.58335,-2.36628 -0.18643,1.31141 -0.27956,2.40162 -0.27956,3.26803 0,2.92867 0.58721,5.40742 1.77662,7.43778 1.13255,1.90455 2.41618,2.85565 3.85352,2.85565 1.16798,0 2.1766,-0.89641 3.02205,-2.69338 0.79232,-1.92262 1.5707,-3.84672 2.34249,-5.76916 0.44743,-0.98835 1.26576,-2.00274 2.45049,-3.04477 1.20433,-1.06037 2.16799,-1.56475 2.88666,-1.51051 0.54065,0.0373 1.0583,0.55793 1.56165,1.56424 0.73641,1.43738 1.3758,2.45184 1.9146,3.04478 1.77943,1.9405 4.10525,2.85922 6.97995,2.75127 1.86893,0 3.48591,-0.94576 4.8524,-2.8324 1.1316,-1.56318 1.66383,-4.06921 1.59113,-7.51892 -0.7457,-7.12907 -1.44669,-13.34149 -2.10013,-18.67895 0.56861,-0.29456 1.12786,-0.68556 1.67224,-1.17978 0.8762,-1.00605 1.47553,-1.75874 1.78128,-2.2619 0.37285,1.13189 0.60603,1.74943 0.67128,1.85727 0.44741,0.70099 1.23068,1.05212 2.34458,1.05212 1.75987,0 3.33226,-1.56337 4.71649,-4.68963 0.0932,0.89857 0.28903,1.63327 0.69918,2.20813 0.77367,1.09572 2.20131,1.67235 4.28554,1.72651 1.08969,-0.007 2.34722,-0.41196 3.77341,-1.21388 1.25743,-0.70096 2.18117,-1.39967 2.77399,-2.10063 1.51006,-1.76081 2.14046,-3.5859 1.88879,-5.47254 -0.17712,-1.27572 -0.99084,-2.74894 -2.42727,-4.41989 -1.59953,-1.81475 -2.47983,-2.96458 -2.64014,-3.4494 0.37285,0.0652 0.82994,0.108 1.34824,0.108 0.3076,0 0.4563,-0.093 0.4563,-0.26924 0,-0.21532 -0.22334,-0.51284 -0.67075,-0.89037 -1.31151,-0.97034 -2.41646,-1.76811 -3.31504,-2.39676 -0.0932,-0.0746 -0.15851,-0.11668 -0.23307,-0.11575 z m -19.75435,1.05058 -0.11938,0.008 c -0.0932,0 -0.0934,0.009 -0.14933,0.0185 v 0.009 c -0.22371,0.0652 -0.4939,0.23889 -0.8015,0.52038 0,0.0373 -0.093,0.0652 -0.11163,0.10438 -0.14912,0.14541 -0.30766,0.31408 -0.47543,0.51263 0,0.0466 0,0.0839 -0.0935,0.12766 v 0.0651 c -0.0932,0.2759 -0.093,0.55205 -0.10232,0.82891 0.17712,0.22744 0.34476,0.45072 0.55915,0.65111 0,0.0185 0.0935,0.047 0.0935,0.0656 0.0932,0.0466 0.10218,0.0838 0.15811,0.12663 0,0.0185 0.0936,0.0372 0.0936,0.0558 0.0932,0.0559 0.17701,0.11184 0.27956,0.16124 -0.0932,0.22838 -0.24236,0.49292 -0.48472,0.78184 0,0.028 -0.0935,0.0562 -0.0935,0.0936 -1.34133,1.55974 -4.55057,3.76023 -5.86581,4.61676 0.0932,-0.0373 0.13991,-0.0746 0.21447,-0.10437 2.22409,-1.06106 5.00071,-2.78813 6.78667,-5.09479 l 0.69919,0.18087 0.0935,-1.02527 c -0.11187,-0.10998 -0.25189,-0.093 -0.39172,-0.1266 0.37285,-1.20271 0.34491,-2.12735 0,-2.45102 v -0.0372 c 0,-0.0185 -0.093,-0.0279 -0.093,-0.0372 v -0.009 c 0,-0.009 -0.0935,-0.0279 -0.10281,-0.0279 v -0.007 -0.007 c 0,0 -0.093,-0.007 -0.093,0 z m 12.08609,0.0336 c 0.009,0 0.0907,1.3e-4 0.0982,0.0169 -0.44315,0.0895 -1.47891,0.96562 -1.77509,1.94665 -0.0932,0.22743 -0.10281,0.41486 -0.11213,0.57052 v 0.0651 c 0,0.45956 0.36344,0.5996 0.97772,0.58187 0,0 0.0935,0 0.0935,-0.007 0,0 0.093,0 0.093,-0.007 0,0 -0.35431,0.56864 -0.69919,1.2025 0,0.0746 -0.093,0.14113 -0.11163,0.21291 -0.22373,0.42783 -0.41947,0.86021 -0.48472,1.14824 -0.10252,0.48284 0.11192,0.80732 0.45681,1.01751 v 0.0185 c 0.41944,0.23955 1.02044,0.31848 1.45573,0.30075 0,0 0.0935,-1.1e-4 0.0935,-0.007 0.0932,-0.007 0.10221,-0.007 0.14883,-0.0185 0.25167,-0.0373 0.68038,-0.19772 1.11104,-0.38137 0.0932,-0.028 0.13991,-0.0651 0.21447,-0.093 0.64318,-0.28525 1.24177,-0.59376 1.24177,-0.59376 0,0 -0.26114,0.0557 -0.67127,0.13126 -0.0932,0.009 -0.10274,0.0185 -0.15865,0.0279 -0.0932,0.009 -0.11149,0.0185 -0.16743,0.0279 -0.0932,0.009 -0.12131,0.019 -0.17724,0.0284 -0.3076,0.0466 -0.65233,0.0966 -1.00563,0.13489 l -0.0935,0.007 c -0.0932,0.007 -0.1492,0.009 -0.23307,0.009 -0.10253,0 -0.20492,-0.007 -0.31676,-0.0185 0,0 -0.093,-0.007 -0.093,-0.009 -0.20505,-0.028 -0.40063,-0.0743 -0.56843,-0.15348 0,-0.009 -2e-5,-0.0185 -0.0936,-0.0279 -0.0932,-0.0373 -0.112,-0.0656 -0.16794,-0.1085 0,-0.009 1.6e-4,-0.0279 -0.093,-0.0465 -0.15846,-0.14261 -0.26096,-0.32911 -0.26096,-0.57052 0,-1.34638 2.22676,-3.30361 2.61638,-3.32952 l 0.0935,-0.85936 -1.44848,1.26762 c 0,0 -0.28927,0.0372 -0.58756,-0.11938 v -0.0185 c 0,-0.009 1.8e-4,-0.0279 -0.093,-0.0372 -0.14912,-0.0988 -0.23299,-0.22831 -0.27027,-0.37 v -0.0279 -0.15761 -0.0651 c 0,-0.34115 0.22341,-0.68352 0.4005,-0.80563 v -0.018 c 0,-0.028 0.0935,-0.0281 0.12144,-0.0185 0,0.007 0.093,0.007 0.093,0.009 0.23305,0.0466 0.33578,0.11909 0.40103,0.25424 v 0.0465 c 0,0.0839 0.093,0.18751 0.093,0.31988 0,0 0.26117,-0.20603 0.41963,-0.42788 v -0.0279 -0.0651 -0.0279 c 0,-0.0746 0.0932,-0.14259 0,-0.2041 v -0.0563 -0.0465 c 0,-0.0746 -0.0935,-0.14063 -0.10284,-0.20776 v -0.0465 c -0.10253,-0.14727 -0.22355,-0.27498 -0.33539,-0.34677 0,0 -0.003,0 -0.004,-0.003 0.0172,-0.003 0.0391,-0.014 0.0543,-0.0151 z m -38.45812,0.0765 -0.0997,0.0124 c 0.0116,0 0.0366,0.003 0.0594,0.006 0.0122,-0.003 0.0291,-0.0103 0.0403,-0.0108 z m -0.0403,0.018 c -0.51035,0.0749 -1.77263,1.13424 -2.12958,2.31304 -0.0932,0.23117 -0.11207,0.42598 -0.13073,0.59375 v 0.0837 c 0,0.65902 0.47551,0.81462 1.36478,0.75498 0,0 -1.33017,2.1267 -1.5343,3.03702 -0.27032,1.23079 1.23952,1.60314 2.21176,1.59166 0.0932,0 0.1306,-0.007 0.19585,-0.007 0.0932,-0.007 0.13067,-0.009 0.17727,-0.0185 0.80163,-0.11557 3.03598,-1.25986 3.03598,-1.25986 0,0 -0.30749,0.0649 -0.79221,0.15348 -0.17711,0.0373 -0.38246,0.0651 -0.60616,0.10335 -0.28898,0.0466 -0.61521,0.0935 -0.94052,0.13176 -0.0932,0.009 -0.16774,0.0185 -0.25164,0.0279 0,0.007 -0.093,0.007 -0.093,0.007 -0.0932,0.007 -0.12131,0.009 -0.18656,0.009 -0.15845,0.007 -0.30765,-0.007 -0.4568,-0.0185 0,-0.007 -0.093,-0.007 -0.093,-0.007 -0.36351,-0.0466 -0.6991,-0.16113 -0.94051,-0.35036 0,-0.0185 3e-5,-0.0372 -0.0935,-0.0465 -0.18643,-0.1687 -0.30747,-0.38875 -0.31679,-0.6749 0,-1.59433 2.63816,-3.91165 3.09957,-3.9424 l 0.093,-1.02113 -1.71876,1.50691 c 0,0 -0.40997,0.0555 -0.81079,-0.21291 -0.17711,-0.11745 -0.28001,-0.27096 -0.3266,-0.43873 v -0.0372 c -0.13983,-0.59471 0.37309,-1.33906 0.63408,-1.26812 0,0.007 0.093,0.009 0.093,0.0185 0.0932,0.0185 0.13991,0.0372 0.19585,0.0558 v 0.009 c 0.12118,0.0559 0.19574,0.12835 0.24236,0.23461 v 0.0558 c 0,0.0988 0.093,0.22476 0.10231,0.38137 0,0 0.31692,-0.24617 0.50334,-0.50901 v -0.0372 c 0,-0.0466 0.0935,-0.0968 0.0935,-0.14623 v -0.0372 -0.17002 c 0,-0.12396 -0.0934,-0.2507 -0.16795,-0.37 v -0.0651 c -0.12118,-0.17431 -0.26123,-0.32343 -0.39172,-0.40823 0,-0.0108 -0.0295,-0.0177 -0.0615,-0.0222 z m -41.52614,0.59788 c -0.0188,0.04 -0.0458,0.10387 -0.0662,0.1478 0.0368,-0.0469 0.0665,-0.0918 0.10438,-0.13902 z m -0.0662,0.1478 c -3.21498,4.10297 -2.1685,6.9588 -0.86352,6.8554 0,0 0.0936,-0.007 0.0936,-0.009 0,0 -2.1e-4,-0.007 0.093,-0.009 0.0222,-0.005 0.0394,-0.0114 0.0589,-0.0169 -0.003,-0.0106 -0.003,-0.0209 -0.003,-0.0315 l 0.076,0.009 c 0.0342,-0.0145 0.0668,-0.0316 0.10128,-0.0532 0.54997,-0.28429 1.07297,-1.11141 1.28363,-2.60141 -0.13049,0.29268 -0.29816,0.65389 -0.54052,0.92141 0,0.0185 0,0.0372 -0.0935,0.0558 -0.0932,0.0746 -0.14917,0.13322 -0.23307,0.1845 0,0.0185 1.6e-4,0.0279 -0.093,0.0372 -0.0932,0.028 -0.10268,0.0558 -0.16793,0.0651 -0.0932,0.0185 -0.13991,0.0372 -0.21447,0.0372 -0.1678,0.007 -0.35407,-0.0464 -0.55914,-0.14986 -0.2983,-0.15753 -0.37267,-0.58422 -0.31676,-1.14051 v -0.0935 c 0.0932,-0.65902 0.3353,-1.48082 0.61494,-2.25412 0,-0.0746 0.0935,-0.1429 0.0935,-0.21188 0.23585,-0.62671 0.47959,-1.18213 0.67024,-1.59422 z m -0.54517,6.79751 c -0.0222,0.009 -0.0484,0.0156 -0.0729,0.0228 0,0.007 0.003,0.0153 0.003,0.0227 0,0 0,0 0,0 0.0238,-0.0159 0.0484,-0.0296 0.0718,-0.046 z m -0.0703,0.046 c -0.42939,0.28567 -0.90056,0.48652 -1.20354,1.09501 -0.54996,0.94649 -0.81089,1.98654 -1.16789,2.99828 0.41947,1.03701 1.08984,0.64241 2.09653,0.66662 -0.39148,0.67395 -0.904,1.09701 -1.45212,1.45624 -0.10252,-0.14073 -0.20542,-0.27374 -0.31728,-0.4005 v -0.0465 c -0.0932,-0.0746 -0.14918,-0.15023 -0.22376,-0.22014 0,-0.009 1.6e-4,-0.0279 -0.093,-0.0465 -0.27032,-0.23305 -0.57793,-0.41751 -0.94051,-0.53123 -0.22371,0.40825 -0.34507,0.75372 -0.40101,1.1095 0.20508,0.47818 0.58751,0.71424 0.84852,0.82889 0.14915,-0.0466 0.28909,-0.0942 0.42892,-0.13901 0.84823,0.0466 1.1145,2.13071 1.37925,2.89441 0.24233,-0.37005 0.2704,-0.62762 0.44751,-1.15652 0,0 0.39153,-1.44738 0.48474,-1.76477 0.11184,-0.36262 0.46615,-1.30665 0.70848,-1.29863 0.0932,0 0.0929,0.007 0.13023,0.009 v 0.007 c 0.0932,0.009 0.0934,0.0279 0.13073,0.0465 v 0.0185 c 0,0.0185 0.093,0.0464 0.093,0.0744 v 0.0185 c 0.13051,0.13329 0.1961,0.31223 0.30797,0.45114 0.10253,-0.17992 0.19579,-0.31412 0.24239,-0.45114 v -0.0279 c 0.0932,-0.16592 -3e-5,-0.33626 -0.0936,-0.601 -0.14915,-0.26564 -0.33555,-0.49961 -0.75499,-0.58909 -0.118,0.0589 -0.21926,0.13533 -0.31366,0.22013 0.11824,-0.26128 0.22891,-0.53385 0.32297,-0.84852 l -0.27027,-0.63563 -1.72651,0.0185 -0.28887,-0.39738 c 0.43809,-0.74758 0.85794,-1.363 1.43401,-1.06349 0.26175,-0.56417 0.26766,-1.13007 0.19172,-1.69447 z m -5.63581,-4.58163 c -0.44741,0.31319 -0.95163,0.50247 -1.27228,1.14462 -0.54996,0.94649 -0.82002,1.98654 -1.17049,2.99828 0.41945,1.0369 1.09435,0.63825 2.10013,0.66249 -0.65251,1.12752 -1.65594,1.55488 -2.57503,2.15077 0.8296,-0.27776 1.66246,-0.46982 2.49391,-0.87437 0.47541,-0.79975 0.81084,-1.38096 1.08675,-2.25877 l -0.27027,-0.63564 -1.72339,0.0185 -0.2894,-0.39687 c 0.4381,-0.74758 0.85786,-1.36006 1.43298,-1.0604 0.26967,-0.58306 0.27038,-1.1662 0.18709,-1.74871 z m 62.0236,0.0847 c -0.0932,0.007 -0.10277,0.0185 -0.14005,0.0465 v -0.007 c -1.06357,1.05426 -1.94603,1.94577 -2.64326,2.67063 0,0.028 0.3724,0.32128 1.24023,0.88987 0.92281,0.58258 1.53273,0.91175 1.82729,0.99062 0.0932,0.0185 0.13946,0.0183 0.16743,-0.007 0.38217,-0.58632 0.94925,-1.16951 1.69963,-1.74977 0.66183,-0.51173 0.99835,-0.81095 1.02166,-0.89762 0,-0.0652 -2e-5,-0.12946 -0.0935,-0.18913 -1.78501,-1.11064 -2.74773,-1.68521 -2.88663,-1.72238 -0.0932,-0.0188 -0.14926,-0.028 -0.20516,-0.0185 z m 43.65521,1.12032 v 0 h -0.10337 c -0.0932,0 -0.13068,0.0651 -0.15864,0.18913 -0.68046,2.08444 -0.96634,3.22511 -0.8573,3.42254 0.42878,0.86223 0.67116,1.39332 0.72707,1.59113 0.34488,3.55756 0.5873,6.27985 0.7271,8.16641 0.19574,1.74636 0.37272,3.31182 0.55915,4.90977 -1.44389,0.42601 -2.88325,0.66929 -4.31964,0.73639 -0.44744,0.0185 -0.87623,0.0279 -1.26866,0.0279 -2.82061,0 -5.26377,-0.86135 -7.3303,-2.58588 -0.13984,-0.10813 -0.27935,-0.16123 -0.4005,-0.16123 -0.44744,0 -0.67128,0.43748 -0.67128,1.31826 0,0.2694 0.0934,0.44907 0.14005,0.53951 1.27516,1.43743 1.89682,2.75775 1.86139,3.9615 0,0.61055 0.0932,0.91726 0.24236,0.91726 0.13983,0 0.2798,-0.23374 0.42892,-0.70073 0.17711,-0.59285 0.2795,-1.32773 0.29816,-2.20813 1.36556,0.48472 2.37503,0.77351 3.02101,0.86299 0.86688,0.12772 2.19226,0.13507 3.98941,0.0279 1.30313,-0.0746 2.71233,-0.36635 4.23077,-0.87903 0.79232,6.98048 1.43925,12.47047 1.93424,16.40986 0.15846,1.58117 0.14912,3.09951 0,4.55474 -0.13984,1.14999 -0.12087,1.72652 0.0935,1.72652 0.13049,0 0.32602,-0.25257 0.59634,-0.75499 0.69911,-1.31159 1.04852,-3.46099 1.04852,-6.44353 0,-0.84453 0,-1.71426 -0.1116,-2.61276 -0.2703,-3.08163 -0.79264,-7.68885 -1.53739,-13.64621 0,-0.0185 0.0935,-0.0372 0.11213,-0.0465 2.28092,-0.98824 3.46649,-1.48413 3.5569,-1.48413 0.15848,0 0.24236,0.084 0.24236,0.24339 0,0.21532 -0.35436,0.62077 -1.05162,1.21389 -0.89484,0.75408 -1.47071,1.30013 -1.72238,1.64176 -0.38219,0.48469 -0.56843,0.8269 -0.56843,1.02526 0,0.0932 -3e-5,0.13436 0.13951,0.13436 0.23302,0 0.59656,-0.26133 1.0785,-0.7824 0.64315,-0.57513 1.29106,-1.13856 1.93889,-1.6955 0.75502,-0.66461 1.1869,-1.30419 1.29503,-1.91511 v -0.007 c 0,-0.19761 0.093,-0.37729 0.093,-0.53951 0,-0.43153 -0.24236,-0.855 -0.72707,-1.26812 -0.0932,-0.0746 -0.20484,-0.108 -0.35399,-0.108 -0.0932,0 -1.2668,0.50408 -3.53002,1.5105 -0.23302,0.10253 -0.45683,0.19979 -0.68987,0.293 0,-0.26752 -0.093,-0.49429 -0.093,-0.76739 -0.77367,-6.10894 -1.14141,-9.41269 -1.10691,-9.91569 0.50334,0.52107 0.9779,0.94925 1.42626,1.29088 0.15846,0.10813 0.27996,0.16124 0.35452,0.16124 0.10252,0 0.15811,-0.0743 0.15811,-0.21498 0,-0.44929 -0.42865,-1.58977 -1.29087,-3.42252 -0.54063,-1.18578 -1.08794,-2.37103 -1.64537,-3.5569 -0.32623,-0.77274 -0.57787,-1.16014 -0.75499,-1.16014 z m -49.51687,0.17055 c -0.0932,0 -0.093,0.01 -0.12094,0.0377 v 0.006 c -0.30758,0.38311 -0.8577,0.86876 -1.64537,1.45674 -0.69908,0.52015 -1.05971,0.83246 -1.08675,0.93639 v 0.093 c 2.15977,1.17419 3.17688,1.74082 3.05666,1.711 0.15845,0.0373 0.27014,0.0284 0.33538,-0.018 1.67971,-1.33585 2.54392,-2.08801 2.59054,-2.26187 v -0.15401 c -1.07011,-0.93753 -2.04711,-1.52398 -2.93264,-1.76112 -0.0932,-0.0185 -0.13992,-0.0372 -0.19585,-0.0372 z m -16.20107,0.13177 c -0.0932,0.007 -0.10277,0.0185 -0.14005,0.0465 v -0.007 c -1.06354,1.05433 -1.94331,1.94577 -2.63964,2.67062 0,0.028 0.37296,0.32176 1.24076,0.89038 0.92282,0.58258 1.53128,0.91188 1.82677,0.99065 0.0932,0.0185 0.13993,0.0183 0.16793,-0.007 0.38216,-0.58632 0.94419,-1.1696 1.6955,-1.74975 0.6618,-0.51173 0.99729,-0.81187 1.0206,-0.89762 0,-0.0652 2.2e-4,-0.12952 -0.093,-0.18915 -1.78596,-1.11064 -2.74732,-1.68561 -2.88716,-1.72289 -0.0932,-0.0185 -0.13941,-0.0281 -0.19534,-0.0185 z m -5.86582,1.29087 c -0.0932,0 -0.0935,0.009 -0.11213,0.0372 v 0.007 c -0.3076,0.38312 -0.8577,0.86741 -1.64536,1.45624 -0.69911,0.52015 -1.06437,0.83328 -1.09141,0.93742 v 0.0925 c 2.15789,1.1743 3.18032,1.74085 3.05822,1.71101 0.15845,0.0373 0.27064,0.0284 0.33588,-0.018 1.67786,-1.33594 2.53918,-2.0923 2.58485,-2.26603 v -0.14986 c -1.06918,-0.93752 -2.04806,-1.524 -2.93264,-1.76112 -0.0932,-0.0185 -0.13991,-0.0377 -0.19584,-0.0377 z m -28.74139,7.74372 v 0.10956 c 0,0.0979 -0.0935,0.19783 -0.0935,0.29663 -0.13983,0.51173 -0.23278,1.16464 -0.37259,1.67637 -0.22373,-0.50519 -0.4567,-1.04957 -0.7643,-1.54511 0.40082,-0.12957 0.79211,-0.27226 1.19478,-0.46614 0,-0.0241 0.0106,-0.0482 0.0356,-0.0713 z m 19.61999,0.003 h 0.15039 c 0.61521,0.0373 1.09323,0.32422 1.45211,0.86299 0.23305,0.34118 0.42905,0.62076 0.59685,0.83611 -2.0302,-0.0746 -3.18823,-0.23411 -3.47626,-0.48575 0,-0.41296 0.11208,-0.71967 0.38241,-0.91726 0.23304,-0.19018 0.53096,-0.28771 0.8945,-0.29609 z m 54.87985,5.41723 -0.045,0.013 c -0.0932,0 -0.15851,0.0462 -0.21444,0.13385 -0.31692,1.32959 -0.60566,2.41628 -0.85733,3.26078 0,0.10813 0.3261,1.22478 0.9674,3.34502 0.71776,2.29976 1.17845,4.12988 1.37512,5.49526 0.6991,4.65368 1.32312,9.65626 1.86189,15.01045 0.13984,1.3457 0.27049,2.55884 0.41032,3.66128 -1.68344,0.70842 -3.43204,1.83925 -5.24878,3.39153 -2.69573,2.65909 -5.39874,5.31821 -8.11217,7.9773 -1.04215,0.98536 -2.0247,1.80334 -2.9559,2.45099 -0.27964,-1.21952 -0.6155,-2.46486 -0.99116,-3.73414 -0.81097,-2.71307 -1.43793,-4.07004 -1.88722,-4.07004 -0.0932,0 -0.15851,0.0467 -0.21444,0.13436 -0.32623,1.32969 -0.60616,2.41586 -0.85784,3.26028 0,0.1081 0.31729,1.22123 0.9679,3.34139 0.26101,0.85381 0.49411,1.64156 0.68988,2.36628 -0.85757,0.36634 -1.66198,0.55581 -2.40398,0.56327 -1.43827,0 -2.20948,-0.97817 -2.31667,-2.93677 -0.13983,-2.64099 0.77381,-5.92188 2.74712,-9.83869 0.25167,-0.48564 0.3819,-0.82794 0.3819,-1.02526 0,-0.12584 0,-0.18913 -0.13023,-0.18913 -0.3076,0 -0.59684,0.24339 -0.85783,0.72811 -2.17469,3.89893 -3.26027,7.45866 -3.26025,10.6748 0,1.5272 0.52213,2.83864 1.56424,3.93465 1.04215,1.09786 2.29918,1.63464 3.77288,1.61488 0.37285,-0.007 0.78304,-0.0835 1.22113,-0.2382 0.26681,1.79287 0.51936,3.65281 0.76428,5.549 l 2.34458,-0.63045 c -0.24461,-2.00168 -0.5139,-3.98518 -0.82116,-5.94228 v -0.25424 c 0.80163,-0.59002 1.67121,-1.35445 2.61173,-2.28928 4.67092,-4.67148 7.66373,-7.53782 8.9762,-8.59793 1.64147,-1.33312 3.165,-2.2553 4.56975,-2.77087 0.19574,1.09741 0.39132,1.9713 0.58706,2.62101 0.3915,1.3116 1.12506,2.55958 2.18487,3.74553 1.40192,1.5631 2.91672,2.34714 4.55166,2.34714 v -0.007 c 1.07383,-0.0185 2.30774,-0.42469 3.70313,-1.20973 1.25746,-0.70096 2.18633,-1.40332 2.77916,-2.10428 1.50913,-1.76081 2.1363,-3.58228 1.88462,-5.46892 v -0.007 c -0.17711,-1.27572 -0.98626,-2.74942 -2.42361,-4.42039 -1.60046,-1.81475 -2.4821,-2.96344 -2.64429,-3.4489 0.38216,0.0746 0.82957,0.10803 1.34876,0.108 0.30763,0 0.45683,-0.0935 0.45683,-0.26974 0,-0.21532 -0.22389,-0.50874 -0.6713,-0.88625 -1.31149,-0.97028 -2.41594,-1.77223 -3.31451,-2.40088 -0.27033,-0.25167 -0.45712,-0.0991 -0.56896,0.45836 -0.13984,1.14988 -0.24223,2.06582 -0.29816,2.74815 -0.0932,0.19762 0.1025,0.29612 0.51263,0.29612 0.63386,1.88656 1.76019,3.77452 3.39513,5.66116 1.7254,1.97641 2.71246,3.27914 2.96415,3.90776 0.13981,0.34118 -0.57816,0.95422 -2.15439,1.83452 -1.7263,0.93308 -3.38384,1.4074 -4.97126,1.42576 -1.04211,0 -2.09243,-0.59931 -3.15227,-1.80353 -0.84825,-0.96475 -1.50056,-2.16969 -1.95077,-3.61477 0.10252,-0.007 0.1956,-0.006 0.29816,-0.006 1.99382,0 3.34983,0.64838 4.06849,1.94199 0.13052,0.30575 0.2612,0.45526 0.40101,0.45526 0.21439,0 0.41968,-0.41939 0.62476,-1.26399 0.15846,-0.71869 0.24236,-1.30442 0.24236,-1.7539 0,-0.93419 -0.39191,-1.70521 -1.187,-2.31613 -0.79233,-0.62921 -1.81378,-0.94414 -3.07216,-0.94414 -0.6618,0 -1.34112,0.0745 -2.03089,0.22738 -0.1678,-2.05825 -0.33557,-4.11562 -0.49403,-6.17379 -0.38219,-4.33022 -0.8858,-8.56178 -1.53736,-12.69431 -0.38217,-2.33566 -0.94149,-4.76956 -1.69654,-7.30292 -0.81094,-2.71306 -1.43795,-4.07003 -1.88724,-4.07003 z m -60.72704,0.69041 -0.21444,0.003 c -0.0814,0.17383 -0.19013,0.43191 -0.293,0.67128 0.15743,-0.22122 0.32361,-0.44514 0.50744,-0.67437 z m -0.50744,0.67437 c -1.2383,1.73977 -1.68765,3.22426 -1.68931,4.30464 v 0.0842 c 0,0.68141 0.21439,1.19425 0.49403,1.49913 v 0.0372 c 0.20508,0.20413 0.4568,0.30162 0.71779,0.28112 0.0932,-0.007 0.18632,-0.0371 0.27955,-0.0651 0.19574,-0.0839 0.40064,-0.23399 0.58706,-0.46611 v -0.0558 c 0.0932,-0.13142 0.19569,-0.28811 0.27956,-0.46615 v -0.0744 c 0,-0.0839 0.0935,-0.16623 0.10284,-0.25476 v -0.093 c 0.12118,-0.33557 0.21429,-0.72969 0.27956,-1.19063 -0.13052,0.28803 -0.29818,0.64212 -0.53123,0.90591 0,0.0185 0,0.0372 -0.0935,0.0558 -0.0932,0.0746 -0.13986,0.13322 -0.22376,0.1845 0,0.009 1.6e-4,0.0279 -0.093,0.0372 -0.0932,0.028 -0.11203,0.0563 -0.16796,0.0656 -0.0932,0.0188 -0.13002,0.0372 -0.21392,0.0372 -0.16779,0.007 -0.34528,-0.0372 -0.55036,-0.14626 -0.29826,-0.15566 -0.37271,-0.57817 -0.31678,-1.12551 v -0.0837 c 0.0932,-0.47167 0.2146,-1.02991 0.39171,-1.59162 0,-0.0652 -2.1e-4,-0.14198 0.093,-0.21188 0.21333,-0.61426 0.44285,-1.1747 0.65476,-1.66759 z m 25.47493,-0.0997 c -0.0257,0.0534 -0.0605,0.13742 -0.0884,0.19793 0.0484,-0.0625 0.0928,-0.12403 0.14314,-0.18708 z m -0.0884,0.19793 c -0.21148,0.273 -0.40952,0.54222 -0.58396,0.80357 0,0.0466 -0.093,0.0928 -0.093,0.13848 -0.80164,1.22733 -1.19865,2.31413 -1.32914,3.20292 v 0.0956 0.80563 0.0837 c 0.0932,1.03839 0.64286,1.61978 1.23664,1.57253 0.0932,-0.007 0.18634,-0.0372 0.27956,-0.0651 0.20505,-0.0839 0.4011,-0.234 0.58756,-0.46612 v -0.0558 c 0.14912,-0.20693 0.29842,-0.47403 0.4196,-0.79841 v -0.093 c 0.11184,-0.33557 0.21434,-0.73369 0.27958,-1.19475 -0.13049,0.28805 -0.29818,0.64252 -0.53123,0.90538 0,0.0188 0,0.0372 -0.0935,0.0558 -0.0932,0.0746 -0.13986,0.13425 -0.22375,0.18553 0,0.009 1.8e-4,0.0279 -0.093,0.0372 -0.0932,0.0373 -0.1306,0.0562 -0.20516,0.0749 -0.0932,0.009 -0.0929,0.0185 -0.13951,0.0185 -0.0932,0.007 -0.17759,-0.007 -0.27081,-0.0284 v -0.007 c -0.0932,-0.028 -0.16774,-0.0656 -0.26095,-0.11213 -0.2983,-0.15566 -0.37272,-0.57412 -0.31679,-1.12139 v -0.093 c 0.0932,-0.64876 0.32652,-1.45913 0.60616,-2.22002 0,-0.0652 0.093,-0.13607 0.093,-0.20412 0.2269,-0.59243 0.45286,-1.11784 0.63873,-1.52083 z m 4.45709,0.17569 v 0.004 c 0.008,0 0.0217,-0.003 0.0217,-0.004 z m 0,0.004 c -0.0254,0.004 -0.0718,0.0122 -0.0718,0.0341 -1.17449,2.15937 -1.74364,3.17725 -1.71101,3.05562 v 0.33951 c 1.33575,1.67868 2.09261,2.54519 2.266,2.59003 0.0932,0.0185 0.12086,3e-5 0.14882,-0.047 0.93774,-1.06934 1.5244,-2.04748 1.76115,-2.93265 v -0.30384 c -0.38216,-0.30761 -0.86712,-0.8554 -1.45624,-1.64539 -0.52197,-0.69723 -0.82971,-1.05736 -0.93689,-1.08728 z m 38.93817,0.87075 -0.11575,0.009 c -0.0448,0.0964 -0.10655,0.23915 -0.15915,0.35605 0.0922,-0.12192 0.17545,-0.2408 0.2749,-0.36484 z m -0.2749,0.36483 c -3.1645,4.18304 -2.13865,7.09181 -0.79997,7.05747 0.0932,0 0.19566,-0.0185 0.29819,-0.0558 0.36354,-0.12771 0.7367,-0.47741 1.02473,-1.08312 v -0.0837 c 0,-0.0839 0.093,-0.17415 0.11163,-0.26924 v -0.0961 c 0.13049,-0.36169 0.23294,-0.7905 0.29818,-1.28725 -0.1398,0.31133 -0.32604,0.69175 -0.57774,0.97512 0,0.0185 1.6e-4,0.0465 -0.093,0.0651 -0.13983,0.14447 -0.29829,0.2535 -0.48472,0.30851 -0.0932,0.009 -0.10271,0.0279 -0.15864,0.0372 -0.19574,0.0185 -0.4196,-0.0188 -0.67127,-0.15402 -0.31692,-0.1678 -0.40064,-0.61941 -0.33539,-1.20973 v -0.0935 c 0.0932,-0.50896 0.22384,-1.10908 0.4196,-1.71461 0,-0.0746 0.093,-0.15187 0.093,-0.22738 0.0932,-0.151 0.10274,-0.3025 0.15864,-0.45164 0,-0.0746 0.093,-0.14963 0.093,-0.22326 0.21849,-0.57465 0.43585,-1.07633 0.62373,-1.49397 z m -16.97053,-0.0889 v 0.01 c 0.004,-0.003 0.009,-0.005 0.013,-0.008 z m 0,0.01 c -0.52816,0.36697 -1.12012,0.60846 -1.53533,1.27124 v 0.0656 c 0,0.0466 -0.093,0.0977 -0.093,0.14986 -0.71773,1.24161 -1.07058,2.60757 -1.53479,3.93464 0.34488,0.85011 0.82034,0.96576 1.44952,0.94052 0.0932,0 0.1306,-0.007 0.19584,-0.009 0.19574,-0.009 0.41034,-0.0372 0.63408,-0.0465 0,0 0.0929,-1e-4 0.12091,-0.007 0.11187,-0.007 0.23334,-0.007 0.35452,-0.007 -0.85755,1.47892 -2.17128,2.03925 -3.37654,2.82102 0.0932,-0.0185 0.13991,-0.0465 0.20516,-0.0651 1.02349,-0.33088 2.04401,-0.5856 3.0675,-1.08315 0.62452,-1.04886 1.07019,-1.80803 1.42626,-2.9595 l -0.34467,-0.83251 -2.26343,0.0279 -0.3819,-0.52401 c 0.49403,-0.84357 0.96933,-1.55287 1.57149,-1.48725 v 0.007 0.007 c 0,0.007 0.093,0.009 0.093,0.0185 0.0932,0.0185 0.112,0.0372 0.16793,0.0651 0.35269,-0.76107 0.34473,-1.5258 0.24342,-2.28719 z m -36.72801,0.79891 v 0.0532 c 0.0265,-0.0175 0.0538,-0.0331 0.0801,-0.0512 z m 0,0.0532 c -0.51006,0.33721 -1.06105,0.57719 -1.41904,1.29397 -0.40081,0.69535 -0.67071,1.43113 -0.92241,2.17712 -0.0932,0.14915 -0.10274,0.30107 -0.14936,0.45115 -0.0932,0.29921 -0.19561,0.59663 -0.29816,0.894 0.30761,0.76155 0.73626,0.86664 1.29553,0.84336 0,0 0.0935,-1.1e-4 0.0935,-0.007 0.31692,-0.0185 0.68004,-0.0651 1.08366,-0.0558 -0.76433,1.32485 -1.94265,1.82388 -3.02205,2.52439 0.0932,-0.0185 0.12132,-0.0377 0.18656,-0.0563 0.9135,-0.29641 1.83174,-0.52554 2.74712,-0.97099 0.0932,-0.11745 0.13994,-0.23223 0.20516,-0.34314 0.45675,-0.77367 0.79245,-1.40589 1.07486,-2.30839 l -0.308,-0.74723 -2.02726,0.0279 -0.34467,-0.46612 c 0.44743,-0.76901 0.88516,-1.4193 1.44073,-1.33326 v 0.007 0.007 0.009 0.007 0.009 c 0,0.009 0.0935,0.0279 0.0935,0.0465 0.19574,-0.42878 0.27027,-0.85764 0.27027,-1.28725 v -0.25786 -0.12766 -0.13177 z m 29.28451,0.42788 v 0 l -0.0697,0.01 c -1.02161,0.55182 -1.52509,1.661 -1.87278,2.83652 0,0.0839 -0.093,0.16579 -0.093,0.25061 0,0.0839 -0.093,0.16944 -0.093,0.25427 -0.24235,0.87342 -0.39171,1.98977 -0.63407,2.86337 -0.89485,-2.05621 -1.97435,-4.50969 -4.28604,-5.24102 -0.35422,0.65437 -0.55888,1.21285 -0.67074,1.78078 v 0.11525 c 0.16777,0.40825 0.41907,0.71022 0.68006,0.93636 0,0.028 0.0935,0.0563 0.10281,0.0842 0.23302,0.18177 0.47501,0.30753 0.67077,0.39325 0.28896,-0.18362 0.5411,-0.25336 0.77412,-0.23098 0,0 0.093,0.007 0.093,0.009 0,0.007 0.093,0.009 0.093,0.0185 0,0.007 0.0935,0.008 0.0935,0.018 0.19574,0.0746 0.36349,0.20601 0.52194,0.38966 0,0.0185 -2.1e-4,0.0465 0.093,0.0651 0.81094,1.04809 1.16776,3.41458 1.51825,4.42452 0.41945,-0.63198 0.4572,-1.07122 0.76481,-1.9735 0,0 0.66162,-2.46774 0.82941,-3.00963 0.1864,-0.61802 0.81082,-2.23753 1.20976,-2.22364 0.85757,0.0185 0.93398,0.66894 1.29191,1.09035 0.25169,-0.43995 0.45677,-0.72226 0.46611,-1.079 v -0.0558 c 0,-0.2004 -0.0933,-0.42863 -0.19584,-0.72038 -0.25167,-0.45302 -0.57793,-0.8541 -1.28728,-1.00613 z m -66.22023,1.27434 c -0.63384,0.0466 -2.39004,1.47976 -2.87475,3.07941 -0.50335,1.63348 0.13044,2.00078 1.63864,1.89963 0,0 -1.76575,2.81688 -2.03605,4.02352 -0.36353,1.63134 1.63986,2.12309 2.92902,2.10788 0.13981,0 0.27006,-0.009 0.3819,-0.0185 0,-0.007 0.0935,-0.007 0.12144,-0.009 0.40082,-0.0559 1.06516,-0.30748 1.74096,-0.59738 0.11187,-0.0466 0.23334,-0.0973 0.3452,-0.14676 1.00857,-0.44837 1.94149,-0.92914 1.94149,-0.92914 0,0 -0.64286,0.14279 -1.56475,0.2966 -0.0932,0.0185 -0.18687,0.0279 -0.2894,0.0465 -0.48471,0.0746 -1.02335,0.15531 -1.57612,0.21497 -0.12118,0.0185 -0.24212,0.0185 -0.3633,0.0185 -0.56862,0.0185 -1.16358,-0.0648 -1.62314,-0.28112 0,-0.0185 -0.093,-0.0279 -0.093,-0.0465 -0.0932,-0.0466 -0.18637,-0.10755 -0.26096,-0.17002 0,-0.0185 -0.093,-0.0465 -0.093,-0.0651 -0.2517,-0.22278 -0.40101,-0.52011 -0.41032,-0.89762 0,-2.11336 3.49628,-5.18107 4.10776,-5.2219 l 0.12145,-1.35289 -2.27375,1.99265 c 0,0 -0.5501,0.0651 -1.0749,-0.28164 -0.23299,-0.15566 -0.36314,-0.3591 -0.42839,-0.58188 v -0.0465 c -0.14914,-0.62733 0.25144,-1.38004 0.59635,-1.61438 0,-0.009 -1.6e-4,-0.019 0.093,-0.0284 0.0932,-0.0373 0.13991,-0.0465 0.19584,-0.0372 0.49403,0.0746 0.67104,0.20497 0.77359,0.493 v 0.0842 c 0,0.11559 0.0935,0.25326 0.10284,0.42013 0,0 0.95523,-0.7556 0.83871,-1.19425 -0.12118,-0.4381 -0.50324,-0.91292 -0.80151,-1.11414 0,-0.028 -0.0934,-0.0372 -0.15864,-0.0372 z m 13.53148,0.4005 c 0,1.9e-4 0,0 0,0 z m 0,0 h -0.17209 c 0.0403,0.009 0.0758,0.0209 0.11316,0.0315 0.027,-0.009 0.0578,-0.0198 0.0589,-0.0315 z m -0.0589,0.032 c -0.0153,0.005 -0.0331,0.0111 -0.0331,0.0146 0,0.0185 -0.093,0.0372 -0.093,0.0558 -0.27963,0.18269 -0.49413,0.42039 -0.68056,0.6935 0,0.028 0,0.0557 -0.0935,0.0837 -0.27032,0.4204 -0.45654,0.91742 -0.60566,1.42989 0,0.0652 1.6e-4,0.1397 -0.093,0.20775 0,0.0652 0,0.13515 -0.0935,0.20412 -0.19577,0.71123 -0.31689,1.62418 -0.51263,2.33577 -0.31692,-0.73268 -0.66194,-1.53082 -1.11311,-2.24327 0,-0.0466 -0.093,-0.10043 -0.10231,-0.14986 -0.55928,-0.85008 -1.27815,-1.56395 -2.27737,-1.8805 -0.30761,0.56859 -0.47525,1.05032 -0.55915,1.54512 0.0932,0.20785 0.19561,0.38489 0.32607,0.53123 0,0.028 0.0935,0.0563 0.0935,0.0842 0.0932,0.0839 0.15846,0.15264 0.24236,0.21601 0,0.0185 0.093,0.0372 0.093,0.0558 0.15846,0.11557 0.32628,0.20235 0.46612,0.26201 1.34786,-0.86315 1.88383,1.39841 2.26602,2.93315 0,0.1184 0.093,0.23085 0.093,0.33898 0,0.10814 0.0935,0.20712 0.0935,0.30128 v 0.13489 0.12298 c 0.33555,-0.51454 0.3819,-0.87255 0.62426,-1.60714 0,0 0.54076,-2.01334 0.67127,-2.45461 0.14915,-0.5043 0.66173,-1.81886 0.98238,-1.80766 0.27963,0.009 0.45706,0.10379 0.59687,0.23151 v 0.0279 c 0.17711,0.1855 0.26993,0.43545 0.42839,0.62838 0.14912,-0.25071 0.27064,-0.43915 0.33588,-0.62838 v -0.0372 c 0.0932,-0.23117 0.093,-0.473 -0.12141,-0.84026 -0.19063,-0.34314 -0.44067,-0.64778 -0.93433,-0.78963 z m 39.55262,1.77612 -0.0103,0.008 c -0.0932,0.009 -0.35388,0.42891 -0.88522,1.24489 -0.5779,0.92281 -0.91376,1.53093 -0.99115,1.82623 v 0.17002 c 0.58727,0.38029 1.17358,0.94486 1.75337,1.69551 0.51268,0.65807 0.81113,0.99877 0.89503,1.02113 0.0932,0.0185 0.13062,-0.009 0.18656,-0.093 1.11016,-1.78562 1.6851,-2.74793 1.72238,-2.88663 v -0.33901 c -1.05331,-1.06376 -1.94545,-1.94363 -2.67065,-2.64014 z m -6.76598,4.84828 c 0.0406,0.009 0.0745,0.023 0.11266,0.0341 0.0167,-0.01 0.0311,-0.0222 0.0486,-0.0315 z m 0.11266,0.0341 c -0.0996,0.0577 -0.19161,0.1184 -0.28734,0.18862 0,0.0185 -0.093,0.0465 -0.093,0.0651 -0.56859,0.49215 -0.8858,1.2409 -1.11881,2.02727 0,0.0652 2.1e-4,0.13515 -0.093,0.20412 0,0.0652 1.6e-4,0.13878 -0.093,0.20775 -0.19577,0.71123 -0.31689,1.62015 -0.51263,2.33164 -0.522,-1.20374 -1.12424,-2.57492 -2.11977,-3.47265 0,-0.0185 0,-0.0372 -0.0935,-0.0558 -0.37285,-0.32438 -0.81102,-0.58153 -1.30691,-0.73999 -0.15845,0.28523 -0.27006,0.54436 -0.36327,0.79788 v 0.0961 c -0.0932,0.22 -0.12136,0.43537 -0.15864,0.65164 0.27964,0.66553 0.82036,0.98941 1.1839,1.14824 1.65735,-1.0618 2.09294,2.60649 2.51611,3.83077 0.33557,-0.51454 0.37259,-0.86765 0.62426,-1.60301 0,0 0.54078,-2.01387 0.67127,-2.45515 0.14915,-0.50429 0.66173,-1.81882 0.98237,-1.80763 0.17709,0.007 0.30777,0.0466 0.41963,0.0997 v 0.0185 c 0.0932,0.028 0.0929,0.0656 0.1302,0.10851 v 0.0279 c 0.16778,0.1855 0.27046,0.43545 0.42892,0.62839 0.14915,-0.25075 0.27014,-0.43916 0.33539,-0.62839 v -0.0465 -0.20826 -0.0465 c 0,-0.16314 -0.0928,-0.34737 -0.15812,-0.586 -0.13049,-0.23024 -0.27958,-0.44307 -0.51263,-0.60153 v -0.0185 c -0.10342,-0.0665 -0.23574,-0.11986 -0.38137,-0.16227 z m 51.32604,0.73432 c 0.0616,0.0132 0.11751,0.0301 0.17262,0.0476 0.0265,-0.0154 0.051,-0.032 0.0791,-0.046 z m 0.17262,0.0476 c -0.0969,0.0557 -0.18759,0.11692 -0.27543,0.18499 0,0.0188 -0.093,0.0464 -0.093,0.0651 -0.17711,0.15938 -0.34488,0.34406 -0.48472,0.54726 0,0.028 1.6e-4,0.0557 -0.093,0.093 -0.28898,0.44741 -0.48491,0.97692 -0.64336,1.52242 0,0.0746 -0.093,0.1465 -0.093,0.22013 0,0.0746 2e-5,0.1465 -0.0935,0.22013 -0.21437,0.7569 -0.33544,1.7248 -0.54983,2.4815 -0.34489,-0.77927 -0.7085,-1.62763 -1.18856,-2.38537 0,-0.0559 -0.093,-0.10549 -0.10232,-0.15865 -0.59655,-0.90416 -1.36009,-1.66317 -2.42363,-1.99988 -0.0932,0.11372 -0.12134,0.22365 -0.16796,0.33176 0,0.0373 2.1e-4,0.0744 -0.093,0.10697 -0.19574,0.42321 -0.30782,0.80735 -0.38241,1.20251 0.2983,0.70654 0.86715,1.05272 1.25678,1.22163 0.7457,-0.47633 1.25661,-0.0557 1.63501,0.68628 v 0.0837 c 0.49403,1.01976 0.74571,2.57437 1.00203,3.30677 0.36354,-0.54719 0.40095,-0.92578 0.66197,-1.70739 0,0 0.56861,-2.13981 0.71778,-2.60913 0.16778,-0.53597 0.69895,-1.9349 1.04386,-1.92289 0.74571,0.0185 0.81098,0.57579 1.12139,0.93999 0.15846,-0.2666 0.28874,-0.46477 0.35398,-0.66612 v -0.047 -0.22323 -0.047 c 0,-0.17338 -0.0934,-0.37073 -0.16795,-0.62425 -0.20117,-0.35285 -0.44953,-0.66755 -0.94102,-0.8232 z m 8.66201,0.95652 c -0.0932,0 -0.13068,0.0651 -0.15865,0.18915 -0.68045,2.08444 -0.96731,3.22469 -0.85733,3.42202 0.42879,0.86315 0.67117,1.39472 0.72711,1.59215 0.34488,3.55748 0.58724,6.27936 0.72707,8.16589 0.83294,7.46816 1.38374,12.02851 1.95286,16.78297 l 2.0252,-0.54467 c -0.34663,-3.33751 -0.80756,-7.36587 -1.50431,-12.78887 -0.77367,-6.10894 -1.14075,-9.41261 -1.10535,-9.91569 0.50337,0.52107 0.97967,0.94946 1.42989,1.29088 0.15846,0.10813 0.27942,0.16123 0.35398,0.16123 0.11187,0 0.15865,-0.0742 0.15865,-0.21497 0,-0.44929 -0.42905,-1.58988 -1.29501,-3.42254 -0.54065,-1.18579 -1.08836,-2.37109 -1.64486,-3.55688 -0.32623,-0.77274 -0.57793,-1.16014 -0.75501,-1.16014 z m -31.20017,0.38087 -0.0185,0.003 c 0.006,0.006 0.0114,0.0122 0.0175,0.018 z m 0,0.0196 -0.0925,1.45986 c 0.62455,0.48287 1.04153,1.04349 1.30998,1.65365 v 0.10078 c 0.63386,1.53969 0.36362,3.39558 0.22378,5.17538 0,-0.0466 -2.1e-4,-0.10044 0.093,-0.14986 0.24236,-0.8445 0.41945,-1.66997 0.49403,-2.47012 v -0.14264 c 0.0932,-0.6096 -2e-5,-1.20499 0,-1.78078 v -0.13126 c -0.0932,-0.4409 -0.17692,-0.87066 -0.33538,-1.28725 0,-0.0373 0,-0.0838 -0.0935,-0.12298 0,-0.0839 -0.093,-0.16489 -0.10232,-0.24598 0,-0.0373 0,-0.0839 -0.0935,-0.12301 -0.32303,-0.68484 -0.78369,-1.33294 -1.40353,-1.93579 z m -20.94447,3.80701 v 0 h -0.003 c 0.40082,0 0.76428,0.26998 1.10173,0.80875 0.36354,0.52104 0.54983,1.10709 0.56846,1.75389 -0.79233,-0.0932 -1.4799,-0.34258 -2.07275,-0.75551 -0.10253,-0.0746 -0.56893,-0.47721 -1.37615,-1.21388 0.42844,-0.3949 1.02542,-0.59294 1.77871,-0.59325 0,0 0,0 0.003,0 z m -39.6136,2.87218 c -0.0601,0.13399 -0.13949,0.31441 -0.21807,0.494 0.11438,-0.15724 0.22643,-0.314 0.35605,-0.47593 z m -0.21807,0.494 c -0.5356,0.73613 -0.91771,1.42248 -1.16118,2.04071 v 0.10078 c -0.0932,0.23585 -0.15851,0.4632 -0.21444,0.67852 v 0.093 c -0.13981,0.63572 -0.13981,1.1724 0,1.58803 v 0.0558 c 0.0932,0.30763 0.22338,0.54597 0.4005,0.70073 v 0.0284 c 0.15846,0.12771 0.3262,0.19378 0.51263,0.18912 0.0932,0 0.13059,-0.0185 0.19584,-0.0372 v -0.009 -0.0185 -0.0185 c 0,-0.009 0.0935,-0.0279 0.0935,-0.0465 0.13049,-0.0746 0.26072,-0.19198 0.3819,-0.34674 v -0.0465 c 0.13049,-0.17897 0.25194,-0.40572 0.35449,-0.68628 v -0.0837 c 0.10253,-0.28991 0.18643,-0.63093 0.24236,-1.02886 -0.14915,0.33837 -0.37291,0.78086 -0.69916,0.99012 0,0.009 -3e-5,0.0185 -0.0936,0.0279 0,0.028 -0.0929,0.0465 -0.13951,0.0558 0,0.009 -0.0935,0.019 -0.12145,0.0284 -0.15846,0.0185 -0.33546,-0.0185 -0.54054,-0.123 -0.25167,-0.13423 -0.31684,-0.49901 -0.27025,-0.9715 v -0.0744 c 0.0932,-0.40828 0.1769,-0.89051 0.33536,-1.37615 0,-0.0652 3e-5,-0.11975 0.0936,-0.18034 0,-0.12115 0.0929,-0.24254 0.1302,-0.36277 0,-0.0559 3e-5,-0.12216 0.0936,-0.18087 0.1389,-0.36584 0.27741,-0.69175 0.40616,-0.98599 z m -15.54634,0.0341 c 0.003,0.0116 0.003,0.0235 0.004,0.0351 0.0146,-0.01 0.0295,-0.0185 0.0439,-0.0284 z m 0.004,0.0351 c -0.50123,0.3387 -1.05037,0.5606 -1.40457,1.27019 -0.62452,1.07669 -0.93205,2.25996 -1.32913,3.41066 0.29826,0.73732 0.70871,0.83884 1.25214,0.81648 0,0 0.093,1.6e-4 0.093,-0.007 0.3076,-0.0185 0.65235,-0.0656 1.04852,-0.0563 -0.69012,1.1867 -1.71694,1.69251 -2.69442,2.29856 v 0.0749 c 0.86646,-0.27821 1.73681,-0.50043 2.60398,-0.92241 0.0932,-0.11375 0.13063,-0.22456 0.19587,-0.33177 0.43807,-0.74847 0.77375,-1.36181 1.04127,-2.23551 l -0.29819,-0.72401 -1.96111,0.0279 -0.33589,-0.45115 c 0.42875,-0.7308 0.83915,-1.34792 1.3658,-1.29087 0,0.007 0.093,0.009 0.11163,0.0185 v 0.007 0.009 c 0,0.009 0.0936,0.0279 0.0935,0.0465 0.30218,-0.65289 0.30586,-1.30847 0.21757,-1.96112 z m 8.65785,2.05621 -0.17155,0.0109 c 0,0 0.0876,8e-5 0.0915,0.018 0.027,-0.007 0.0574,-0.0206 0.0801,-0.0217 z m -0.0806,0.0294 c -0.18348,0.0504 -0.45288,0.23085 -0.72088,0.50125 0,0.0185 2.1e-4,0.0378 -0.093,0.0657 -0.28895,0.30294 -0.55938,0.69328 -0.68059,1.10585 -0.2703,0.89765 0.0929,1.10003 0.8759,1.04439 0,0 -0.13036,0.21733 -0.30747,0.52401 0,0.0559 -0.093,0.10623 -0.093,0.16123 -0.27964,0.50054 -0.61529,1.15285 -0.69919,1.52599 -0.19574,0.8967 0.87644,1.16853 1.56528,1.16014 0.0932,0 0.13941,-0.007 0.20465,-0.009 0,0 0,-0.007 0.0935,-0.007 0.2144,-0.0373 0.5687,-0.16865 0.93224,-0.32711 0.0932,-0.028 0.12078,-0.0562 0.18603,-0.0842 0.54062,-0.24609 1.04129,-0.51263 1.04129,-0.51263 0,0 -0.22357,0.0561 -0.55914,0.11575 -0.0932,0.0185 -0.17704,0.0372 -0.27956,0.0465 -0.14915,0.028 -0.30763,0.0464 -0.47543,0.0744 -0.0932,0.007 -0.11205,0.019 -0.16796,0.0284 -0.0932,0.007 -0.12131,0.009 -0.17725,0.0185 -0.0932,0.007 -0.12083,0.0185 -0.17674,0.0185 l -0.0935,0.007 c 0,0 1.6e-4,0.007 -0.093,0.007 -0.1305,0.007 -0.26117,-2e-5 -0.39169,-0.009 0,0 1.6e-4,-0.006 -0.093,-0.006 -0.1678,-0.028 -0.33563,-0.0655 -0.47543,-0.13435 0,-0.007 2.1e-4,-0.0185 -0.093,-0.0279 -0.17711,-0.0969 -0.31718,-0.23421 -0.37312,-0.42063 v -0.0279 -0.17311 c 0,-1.16173 1.8701,-2.84866 2.19729,-2.87113 l 0.093,-0.74414 -1.21801,1.09501 c 0,0 -0.29864,0.0371 -0.57828,-0.15399 v -0.0185 -0.0185 c -0.0932,-0.0746 -0.14928,-0.17632 -0.17724,-0.28165 v -0.0185 -0.13902 -0.0558 -0.108 -0.0558 c 0.0932,-0.2349 0.18679,-0.44561 0.30797,-0.53229 v -0.0185 c 0,-0.0185 0.093,-0.0281 0.10234,-0.0185 0.0932,0.009 0.15854,0.0279 0.20516,0.0465 v 0.009 c 0,0.009 0.093,0.0284 0.093,0.047 v 0.009 c 0.0932,0.0373 0.0935,0.0933 0.10285,0.15762 v 0.093 0.18087 c 0,0 0.51279,-0.41386 0.44751,-0.65527 -0.0932,-0.24143 -0.27043,-0.50141 -0.42891,-0.61235 0,0 -0.003,-1.3e-4 -0.003,0 z m 22.98983,1.66862 v 0 l 0.0594,0.005 c -0.0932,0 -0.0929,0.007 -0.13954,0.0185 0,0.007 2.1e-4,0.007 -0.093,0.009 -0.4381,0.11464 -1.00441,0.52779 -1.69603,1.31051 -0.0932,0.0559 -0.11153,0.12017 -0.15812,0.18449 0,0.0559 -0.0936,0.10994 -0.0936,0.16587 -0.13049,0.38777 -0.14877,0.77541 -0.15811,1.16374 0.37288,0.49403 0.76425,0.97888 1.372,1.32189 0,0.0185 0.0934,0.0465 0.13075,0.0651 -0.13049,0.38685 -0.46617,0.85508 -0.93689,1.3684 0,0.0373 -0.0935,0.0835 -0.11215,0.11885 -1.89318,1.99832 -5.70625,4.60873 -7.32256,5.66169 0.0932,-0.0466 0.18637,-0.0842 0.27959,-0.13179 2.89708,-1.38253 6.51369,-3.63794 8.84028,-6.64353 l 0.91363,0.23823 0.12094,-1.33323 c -0.13983,-0.14264 -0.33554,-0.12208 -0.51265,-0.1659 0.58724,-1.92905 0.40994,-3.31028 -0.401,-3.3569 0,0 -0.093,-0.007 -0.093,0 z m 16.06826,1.63558 c -0.46607,0.58351 -0.86704,1.14546 -1.19423,1.68412 0,0.0559 -0.093,0.10811 -0.10234,0.16124 -0.25167,0.42693 -0.46625,0.83867 -0.64336,1.23298 0,0.0466 1.6e-4,0.0983 -0.093,0.14677 -1.34413,3.11806 -0.37298,5.10939 0.80151,5.07928 0.0932,0 0.18637,-0.0185 0.27958,-0.0465 0,-0.007 -2.1e-4,-0.009 0.093,-0.0185 0,-0.007 3e-5,-0.019 0.0936,-0.019 0.46606,-0.18923 0.93215,-0.69797 1.25934,-1.5875 v -0.108 c 0.1398,-0.40455 0.25151,-0.88583 0.33538,-1.44177 -0.15846,0.34769 -0.36372,0.77737 -0.64336,1.0945 0,0.0185 1.9e-4,0.047 -0.093,0.0656 -0.0932,0.0839 -0.16774,0.16225 -0.27027,0.22376 0,0.0185 -0.093,0.0279 -0.093,0.0465 -0.0932,0.0373 -0.13059,0.065 -0.19584,0.0837 v 0.009 0.009 c -0.0932,0.009 -0.11197,0.0185 -0.17724,0.0185 -0.19574,0.007 -0.41963,-0.0467 -0.66199,-0.17724 -1.19407,-0.63201 0.60618,-4.87588 1.33792,-6.45491 z m 36.65151,0.35292 -0.0279,0.003 c -0.33557,0.0185 -0.8206,0.34189 -1.41904,1.05574 -0.1398,0.30573 -0.13951,0.6115 -0.14883,0.91726 0.27033,0.36353 0.55896,0.71755 1.03249,0.95551 -0.4381,1.31281 -4.34928,4.00315 -5.77639,4.93303 0.0932,-0.028 0.1306,-0.065 0.19585,-0.093 1.99847,-0.95403 4.49074,-2.50859 6.09679,-4.58213 l 0.63408,0.16123 0.093,-0.91725 c -0.10256,-0.0988 -0.23281,-0.0841 -0.35399,-0.11576 0.10253,-0.33277 0.16785,-0.64042 0.20516,-0.91726 v -0.1044 c 0,-0.4027 0,-0.73054 -0.0935,-0.95549 v -0.0558 c 0,-0.0653 -0.0929,-0.12893 -0.13023,-0.17365 v -0.0279 c 0,-0.0185 -0.093,-0.0372 -0.093,-0.0465 v -0.007 c 0,-0.009 -0.0934,-0.0279 -0.12144,-0.0279 0,0 1.5e-4,-0.007 -0.093,0 z m 30.4519,2.02417 c -0.0932,0.0652 -0.10277,0.12668 -0.14936,0.18915 -0.0932,0.0652 -0.0934,0.12295 -0.14004,0.18447 -0.51269,0.67768 -0.94234,1.32477 -1.28725,1.94202 0,0.0559 -0.093,0.11408 -0.093,0.17002 -0.68977,1.27804 -1.03166,2.41091 -1.13326,3.35637 v 0.123 0.35449 0.11163 c 0,1.1235 0.37253,1.90852 0.88521,2.25824 0,0.009 0,0.0279 0.0935,0.0372 0.19574,0.11745 0.40058,0.17561 0.61497,0.17 0.13984,-0.007 0.2798,-0.0376 0.41961,-0.0935 0.26101,-0.10533 0.51263,-0.30446 0.75498,-0.6046 0,-0.0185 -1.5e-4,-0.0465 0.093,-0.0651 0.19577,-0.26754 0.38259,-0.60962 0.54105,-1.02888 v -0.11576 c 0,-0.11837 0.0929,-0.24042 0.12091,-0.36999 v -0.13541 c 0.0932,-0.31227 0.14923,-0.658 0.20516,-1.03662 -0.27964,0.61148 -0.69011,1.45325 -1.37615,1.62627 -0.0932,0.0185 -0.12078,0.0279 -0.18603,0.0279 -0.2237,0.0185 -0.47535,-0.0371 -0.75499,-0.18809 -0.38219,-0.20135 -0.47556,-0.74189 -0.401,-1.44902 v -0.11213 c 0.0932,-0.6096 0.27027,-1.32858 0.50332,-2.05414 0,-0.0932 0.093,-0.18243 0.093,-0.27284 0.0932,-0.18177 0.13059,-0.36055 0.19584,-0.53951 0,-0.0932 0.0935,-0.17852 0.0935,-0.26612 0.33552,-0.88072 0.6894,-1.69056 0.93639,-2.21901 z m -106.2328,1.69138 -0.0336,0.004 c -0.37285,0.0188 -0.90408,0.37753 -1.57149,1.17152 -0.14915,0.34023 -0.15859,0.68033 -0.17724,1.02111 0.29829,0.40455 0.62489,0.7992 1.15342,1.06402 -0.48472,1.46037 -4.83709,4.44963 -6.42546,5.48391 0.0932,-0.0373 0.13989,-0.0653 0.21445,-0.0997 1.36371,-0.65064 2.93245,-1.5507 4.35581,-2.68251 0.0932,-0.0559 0.14917,-0.11978 0.22375,-0.18037 0.81095,-0.66926 1.5707,-1.41702 2.20454,-2.23551 l 0.70847,0.18552 0.093,-1.02526 c -0.11187,-0.10998 -0.25138,-0.093 -0.39119,-0.1266 0.11184,-0.37005 0.18643,-0.71295 0.23305,-1.02113 v -0.11213 c 0.0932,-0.44837 3e-5,-0.81757 -0.0935,-1.06765 v -0.0558 c 0,-0.0746 -0.0929,-0.1424 -0.13952,-0.19275 v -0.0372 c -0.0932,-0.0559 -0.16777,-0.0842 -0.26098,-0.0935 z m 63.96302,0.14676 -0.0455,0.004 c 0.0148,0.0143 0.0272,0.0295 0.0418,0.0439 z m -0.004,0.0476 -0.0894,1.18959 c 0.69911,0.53692 1.07818,1.18592 1.27487,1.89963 v 0.0935 c 0.28302,1.10882 0.13827,2.36447 0.019,3.58944 0.19389,-0.67969 0.32814,-1.34196 0.39119,-1.98697 v -0.11935 -1.48365 -0.11213 c -0.17434,-1.12202 -0.66718,-2.15588 -1.59578,-3.07009 z m 1.2046,6.77219 c -0.007,0.0238 -0.0122,0.0471 -0.019,0.0708 v 0.12763 c 0.006,-0.0658 0.0127,-0.13242 0.019,-0.19844 z m -11.96052,-3.91035 c -0.0932,0.007 -0.16774,0.0284 -0.26095,0.0656 v 0.018 c -0.30761,0.13425 -0.68977,0.44027 -1.13999,0.94827 0,0.0466 -0.093,0.0932 -0.12094,0.14261 -0.14915,0.34023 -0.15862,0.68043 -0.17724,1.02113 0.29826,0.40455 0.62425,0.7987 1.15186,1.06352 -0.26101,0.77555 -1.60586,1.98575 -3.05252,3.10264 -0.0932,0.0652 -0.16775,0.13113 -0.26096,0.19637 -1.19777,0.90977 -2.41967,1.73646 -3.11505,2.18901 0.0932,-0.0373 0.13938,-0.0651 0.21392,-0.10335 2.22406,-1.06116 4.99758,-2.78828 6.78357,-5.09476 l 0.70797,0.18087 0.0935,-1.02526 c -0.11186,-0.10999 -0.26122,-0.0941 -0.39169,-0.12766 0.29827,-0.97148 0.34507,-1.76192 0.15865,-2.20039 v -0.0558 c 0,-0.0746 -0.0934,-0.14284 -0.14005,-0.19224 0,-0.009 1.9e-4,-0.0279 -0.093,-0.0372 0,-0.028 -0.0935,-0.0465 -0.12145,-0.0651 v -0.007 c 0,-0.009 -0.093,-0.0185 -0.11163,-0.0185 h -0.093 z m -62.53313,0.17258 c -0.0354,0.0774 -0.0878,0.2031 -0.13023,0.29869 0.0743,-0.0991 0.14272,-0.19656 0.22376,-0.29765 z m -0.13023,0.29869 c -2.21025,2.94921 -1.4814,4.9947 -0.53176,4.97025 0.0932,0 0.18688,-0.0279 0.28009,-0.0651 v -0.0185 -0.0185 c 0.12118,-0.0652 0.23284,-0.17148 0.33539,-0.30851 v -0.0465 c 0.0932,-0.10067 0.14922,-0.21788 0.21447,-0.35399 v -0.0656 c 0,-0.0652 0.093,-0.1247 0.093,-0.19275 v -0.0651 c 0,-0.0652 0.0935,-0.1428 0.0935,-0.22014 v -0.0744 c 0.0932,-0.1855 0.093,-0.38867 0.12094,-0.61237 -0.15846,0.35419 -0.40074,0.83878 -0.79221,0.95548 0,0.009 -0.0934,0.0185 -0.14005,0.0185 -0.0932,0.007 -0.13986,-8e-5 -0.21444,-0.0185 v -0.007 c -0.0932,-0.0185 -0.1301,-0.0464 -0.20466,-0.0837 -0.2237,-0.1193 -0.27964,-0.44088 -0.24236,-0.8594 v -0.0651 c 0.0932,-0.36073 0.15838,-0.78878 0.29819,-1.21801 0,-0.0559 -2.1e-4,-0.10811 0.093,-0.16124 0.19624,-0.56533 0.41637,-1.08235 0.59687,-1.48931 z m 38.76456,1.87225 c -0.014,0.0313 -0.0356,0.0817 -0.0506,0.11575 0.0277,-0.0353 0.0501,-0.0689 0.0785,-0.10438 z m -0.0506,0.11575 c -2.9223,3.71536 -1.97234,6.30547 -0.7886,6.21202 0.0932,-0.007 0.19619,-0.0371 0.29872,-0.0837 0.33554,-0.15661 0.67074,-0.54198 0.9131,-1.19113 v -0.0837 c 0,-0.0839 0.0935,-0.17333 0.0935,-0.26562 v -0.093 c 0.0932,-0.22182 0.10221,-0.46699 0.14883,-0.73639 -0.15846,0.35889 -0.3915,0.83058 -0.73639,1.05215 0,0.009 2.1e-4,0.0185 -0.093,0.0279 -0.0932,0.028 -0.10276,0.0465 -0.14936,0.0651 -0.0932,0.0185 -0.10218,0.0279 -0.15811,0.0279 -0.15846,0.009 -0.33599,-0.0277 -0.53176,-0.13488 -0.2703,-0.14261 -0.34478,-0.52705 -0.28887,-1.02939 v -0.0837 c 0.0932,-0.43344 0.18671,-0.94138 0.35449,-1.45676 0,-0.0652 -1.9e-4,-0.12883 0.093,-0.19222 0,-0.12864 0.0934,-0.25821 0.14005,-0.385 0,-0.0652 0.093,-0.12668 0.093,-0.18915 0.22214,-0.57333 0.44529,-1.08675 0.61132,-1.46037 z m -20.04166,0.25943 v 0 l -0.0269,0.009 c -1.02164,0.55184 -1.52506,1.6611 -1.87275,2.83651 0,0.0839 -0.093,0.16582 -0.093,0.25064 0,0.0839 -0.0935,0.16995 -0.0935,0.25477 -0.24233,0.87342 -0.39119,1.98985 -0.63354,2.86338 -0.89485,-2.05621 -1.9753,-4.50969 -4.28604,-5.24103 -0.3542,0.65434 -0.55944,1.21229 -0.6713,1.78025 v 0.11525 c 0.34488,0.81656 1.0057,1.21566 1.45314,1.41076 0.28895,-0.18365 0.5406,-0.25334 0.77362,-0.23098 0,0 0.0935,0.007 0.0935,0.009 0,0.007 0.093,0.008 0.093,0.018 0,0.007 0.093,0.0185 0.093,0.0185 1.23788,0.45863 1.6697,3.66144 2.0929,4.88291 0.41947,-0.63198 0.45667,-1.06706 0.76428,-1.96937 0,0 0.66164,-2.47184 0.82941,-3.01379 0.18646,-0.61894 0.81103,-2.23742 1.20717,-2.22364 0.85756,0.0185 0.93797,0.66948 1.295,1.09091 0.25167,-0.43998 0.45677,-0.72279 0.46611,-1.07953 v -0.0558 c 0,-0.20042 -0.0933,-0.42862 -0.19584,-0.72038 -0.2517,-0.45302 -0.57801,-0.8541 -1.28828,-1.00613 z m 10.96004,0.53948 c -1.68902,0 -3.64019,1.30257 -5.85028,3.90779 -3.05461,3.59339 -4.58216,7.18934 -4.58216,10.7828 0,1.36549 0.90408,2.41623 2.69751,3.15278 0.86688,0.35981 2.6026,0.79237 5.22655,1.295 2.0479,0.37751 3.23345,0.79693 3.5569,1.26402 0.19577,0.2694 -0.76427,1.14311 -2.88303,2.61636 -2.38906,1.68902 -4.97565,3.09092 -7.76179,4.20492 -1.91926,0.78298 -3.76783,1.35559 -5.5454,1.72238 0.25167,-1.38962 0.68072,-2.7949 1.29966,-4.21576 0.21439,-0.50335 0.31678,-0.89115 0.31678,-1.16015 0,-0.21532 -0.0934,-0.32348 -0.15867,-0.32348 -0.25167,0 -0.56856,0.37817 -0.94514,1.13274 -0.73639,1.44658 -1.27204,3.0358 -1.62161,4.76715 -1.17448,0.18828 -2.31555,0.28525 -3.42667,0.28525 -2.10195,0 -3.89083,-0.73538 -5.36453,-2.20813 -1.4737,-1.47333 -2.2388,-3.28015 -2.29288,-5.41827 -0.0932,-2.56934 0.53104,-5.17435 1.80713,-7.81556 0.54065,-1.13207 0.81132,-1.90706 0.81132,-2.32026 0,-0.12398 -3e-5,-0.19539 -0.10285,-0.21497 -0.28897,0 -0.80142,0.72972 -1.53685,2.18487 -1.38422,2.76704 -2.1457,5.90357 -2.28926,9.40718 -0.10252,2.76694 0.60561,5.13792 2.15387,7.11431 1.67132,2.1182 3.89257,3.18616 6.66006,3.20601 0.94798,0.006 1.93302,-0.0809 2.94968,-0.24548 l 4.55269,-1.22421 c 0.762,-0.2758 1.53106,-0.56927 2.32545,-0.92501 2.9297,-1.31169 5.67862,-2.94711 8.24756,-4.90563 2.29958,-1.76081 3.57453,-3.05441 3.82715,-3.88091 0.34488,-1.14988 0.51263,-2.20012 0.51263,-3.15228 0,-1.47333 -0.44746,-2.40119 -1.34977,-2.77862 -0.55928,-0.23397 -2.48563,-0.70747 -5.79192,-1.42576 -2.24552,-0.48472 -3.72858,-1.24241 -4.44727,-2.26653 v -0.13383 c 0,-0.91627 1.0151,-2.62469 3.0453,-5.12217 1.95934,-2.4075 3.64829,-3.61064 5.06791,-3.61064 0.73641,0 1.18657,0.27967 1.34876,0.83614 0.15846,0.53877 0.27943,0.80872 0.34468,0.80872 0.85756,0 1.295,-0.77091 1.295,-2.31613 0,-2.01237 -0.68995,-3.02101 -2.07325,-3.02101 z m 18.97248,1.88622 c 0.007,0 0.0246,0.0103 0.0336,0.0124 0,-0.003 0.005,-0.005 0.005,-0.006 z m 0.0336,0.0124 c -0.003,0.007 -0.014,0.018 -0.0884,0.0403 -0.5779,2.38972 -0.86712,3.52116 -0.86712,3.39514 0,0.16123 -2e-5,0.2713 0.10282,0.3235 1.7263,1.27601 2.67719,1.91564 2.85615,1.91564 0.0932,0 0.11158,-0.0283 0.13023,-0.0842 0.62452,-1.27582 0.94361,-2.37078 0.94361,-3.28713 0,-0.16127 0,-0.25975 -0.0935,-0.2961 -0.44744,-0.19762 -1.05807,-0.60359 -1.82986,-1.21441 -0.63841,-0.50636 -1.0188,-0.76189 -1.15393,-0.79272 z m 56.79033,1.15602 c 0.0315,0.0307 0.0571,0.0631 0.0878,0.094 l 0.006,-0.094 z m 0.0878,0.094 -0.0878,1.38547 c 0.93959,0.72427 1.40382,1.62229 1.61075,2.60551 v 0.108 c 0.0311,0.16327 0.0407,0.33382 0.06,0.50128 l 0.3705,-0.0998 c -0.0122,-0.24561 -0.0294,-0.48993 -0.0294,-0.72916 v -0.13246 c -0.0932,-0.4409 -0.17743,-0.87082 -0.33589,-1.28727 0,-0.0373 1.6e-4,-0.0838 -0.093,-0.12298 -0.31226,-0.79309 -0.80941,-1.54012 -1.495,-2.22986 z m -103.60866,0.34986 -0.0269,0.007 c -4.84523,6.04311 -3.3801,10.28872 -1.47949,10.2397 0.0932,0 0.13059,-0.007 0.20515,-0.0185 0,-0.007 0.093,-0.009 0.093,-0.0185 0.0932,-0.009 0.0934,-0.0284 0.14005,-0.047 0.59655,-0.20881 1.19562,-0.84418 1.6216,-1.98438 0,-0.0466 3e-5,-0.0935 0.0935,-0.13541 0.0932,-0.1361 0.0929,-0.27779 0.13954,-0.42786 v -0.15348 c 0.0932,-0.35981 0.17709,-0.75539 0.24236,-1.19116 -0.44743,0.98005 -1.19372,2.46782 -2.66649,1.68828 -0.4381,-0.23116 -0.55002,-0.85463 -0.46612,-1.66865 v -0.13073 c 0.0932,-0.70188 0.2981,-1.52746 0.57774,-2.36265 0,-0.1044 0.0935,-0.21132 0.10282,-0.31572 0.0932,-0.20879 0.1487,-0.41516 0.22326,-0.62117 0,-0.10252 0.0935,-0.2069 0.12144,-0.3085 0.38219,-1.01396 0.80163,-1.94268 1.07847,-2.55127 z m 30.78832,2.9745 -0.0672,0.003 c 0.0153,0.003 0.028,0.009 0.0429,0.013 -0.26713,0.1484 -0.47512,0.35578 -0.6377,0.6015 v 0.0651 c -0.20508,0.32438 -0.35425,0.71061 -0.47543,1.10641 v 0.15647 c 0,0.0559 2.1e-4,0.10954 -0.093,0.16174 -0.14915,0.54996 -0.24204,1.24997 -0.4005,1.79938 -0.13983,-0.32345 -0.28906,-0.65993 -0.45683,-0.99425 0,-0.0373 0,-0.0838 -0.0935,-0.12764 -0.10255,-0.20693 -0.2235,-0.41209 -0.34467,-0.60875 0,-0.0373 -0.093,-0.0742 -0.093,-0.11523 -0.4381,-0.65622 -0.98621,-1.20883 -1.75803,-1.45314 -0.24233,0.43902 -0.37295,0.81296 -0.4382,1.19475 0,0.0839 0.093,0.15158 0.12092,0.21963 v 0.047 c 0.22373,0.34115 0.54054,0.52453 0.77358,0.62426 0.17709,-0.11557 0.33558,-0.15664 0.48472,-0.14264 0.0932,0.007 0.13063,0.0185 0.18656,0.0465 0.7457,0.34769 1.01171,2.29907 1.27177,3.05253 0.26101,-0.39712 0.28898,-0.67416 0.48472,-1.24127 0,0 0.41008,-1.55101 0.52192,-1.89188 0.12117,-0.3887 0.50334,-1.40766 0.75501,-1.39887 0.22371,0.007 0.35428,0.0747 0.4568,0.17724 v 0.0185 c 0.1305,0.14354 0.20487,0.33703 0.33539,0.48525 0.11184,-0.19389 0.20502,-0.33891 0.26096,-0.48525 v -0.0284 -0.16123 -0.0372 c 0,-0.12587 2e-5,-0.26752 -0.12092,-0.45114 -0.10252,-0.17804 -0.22389,-0.34402 -0.401,-0.46612 v -0.0185 c -0.0918,-0.0584 -0.20862,-0.10412 -0.33848,-0.13695 0.008,-0.005 0.0151,-0.01 0.0233,-0.0145 z m 69.0614,0.4377 c -0.09,0.007 -0.0914,0.0372 -0.13745,0.0925 -1.0178,1.63565 -1.4614,2.39006 -1.57821,2.64377 l 3.36828,-0.90588 c -0.23712,-0.24501 -0.47379,-0.49975 -0.71004,-0.80566 -0.51265,-0.6581 -0.81063,-0.99883 -0.89453,-1.02111 0,-0.003 -0.0314,-0.003 -0.0454,-0.004 z m -50.59018,0.45061 c -0.0932,0.028 -0.22363,0.50295 -0.53123,1.42939 -0.32626,1.04203 -0.48474,1.71378 -0.48474,2.01951 0,0.0839 -1.6e-4,0.14734 0.093,0.16224 0.66183,0.21627 1.37293,0.61238 2.12702,1.18703 0.6618,0.50337 1.04325,0.75499 1.13273,0.75499 0.0932,0 0.13068,-0.0467 0.15864,-0.13436 0.61521,-2.01229 0.91313,-3.08938 0.91313,-3.23339 0,-0.16127 2.4e-4,-0.27131 -0.10231,-0.32351 -1.29286,-0.75504 -2.38345,-1.37591 -3.26337,-1.86137 z m 32.25178,0.23876 c -1.86894,0.0373 -3.50927,0.77079 -4.92892,2.20813 -1.50911,1.5094 -2.266,3.35227 -2.266,5.52628 0,0.23532 0.0366,0.46715 0.0661,0.69969 l 2.08722,-0.56121 c -0.47885,-0.71636 -0.72089,-1.37388 -0.72089,-1.97146 0,-0.66461 1.21251,-1.40309 3.63699,-2.21174 2.31823,-0.77274 4.29654,-1.15652 5.93244,-1.15652 0.68045,0 1.81276,0.2127 3.39463,0.64337 0.21436,0.0559 0.39139,0.0837 0.54054,0.0837 0.19576,0 0.28937,-0.0651 0.28937,-0.18912 0,-0.48469 -0.77395,-1.09374 -2.31663,-1.83039 -1.81486,-0.87995 -3.72108,-1.29445 -5.7149,-1.24074 z m 12.83848,0.71882 c -0.43809,0.30295 -0.9231,0.48511 -1.23351,1.10638 -0.0932,0.14264 -0.15851,0.28782 -0.23307,0.43511 v 0.093 c -0.19055,0.40259 -0.34015,0.8169 -0.47956,1.23454 l 0.39997,-0.10747 -0.0265,-0.0362 c 0.37285,-0.64412 0.73642,-1.18454 1.20717,-1.09037 0,0.007 -1.6e-4,0.007 0.093,0.009 v 0.007 0.006 c 0,0.009 0.093,0.019 0.093,0.0377 v -0.047 -0.0558 c 0.10253,-0.24702 0.1493,-0.49567 0.17724,-0.74361 v -0.10335 -0.21291 -0.108 -0.42014 z m -36.86029,0.0956 -0.13642,0.009 c -0.13983,0.009 -0.3261,0.0936 -0.54983,0.23151 0,0.0185 -0.093,0.0372 -0.093,0.0558 -0.65251,0.43995 -1.49262,1.3318 -1.78437,2.29703 -0.0932,0.17153 -0.093,0.32724 -0.11163,0.46612 v 0.10334 c -0.11187,0.89019 0.43773,1.09694 1.50222,1.02526 0,0 -0.20457,0.33169 -0.4749,0.80151 -0.0932,0.0746 -0.0934,0.16219 -0.14004,0.24701 -0.14915,0.25448 -0.29837,0.53507 -0.44752,0.81751 -0.0932,0.0941 -0.10223,0.18698 -0.14883,0.28112 -0.0932,0.0932 -0.0934,0.18666 -0.13073,0.27802 0,0.0466 1.6e-4,0.0934 -0.093,0.13539 -0.10253,0.22278 -0.18646,0.43424 -0.24236,0.616 v 0.10335 0.10078 0.2775 0.0656 c 0,1.26733 2.01252,1.52488 2.91764,1.39475 0.89484,-0.12864 3.37603,-1.4025 3.37603,-1.4025 0,0 -0.34512,0.0743 -0.87643,0.17312 -0.0932,0.009 -0.13986,0.0279 -0.21445,0.0372 -0.0932,0.009 -0.14869,0.0284 -0.22325,0.0377 -0.0932,0.0188 -0.14915,0.0279 -0.23305,0.0372 -0.41013,0.0653 -0.85767,0.12785 -1.32654,0.17725 0,0.007 -0.0935,0.007 -0.10284,0.009 -0.0932,0.007 -0.13939,0.009 -0.20463,0.009 -0.16778,0.007 -0.34539,-8e-5 -0.51316,-0.0185 0,-0.007 -0.093,-0.007 -0.10232,-0.009 -0.2703,-0.0373 -0.52199,-0.1016 -0.7457,-0.20413 0,-0.0185 -0.093,-0.0279 -0.093,-0.0465 -0.37285,-0.19667 -0.62473,-0.50364 -0.63407,-0.94827 0,-1.77432 2.93621,-4.35104 3.44889,-4.38526 l 0.10282,-1.13688 -1.91201,1.67224 c 0,0 -0.45691,0.0562 -0.90435,-0.2346 -0.19574,-0.13052 -0.30736,-0.30295 -0.35398,-0.48938 v -0.0377 -0.20772 -0.0837 c 0,-0.44929 0.28892,-0.90631 0.52194,-1.06765 0,-0.009 -2.1e-4,-0.0185 0.093,-0.0279 0.0932,-0.028 0.11205,-0.0465 0.15865,-0.0279 0,0.007 0.093,0.009 0.10234,0.0185 0.0932,0.0188 0.15853,0.0372 0.21444,0.0651 v 0.009 c 0.27033,0.11838 0.3171,0.32512 0.41032,0.74364 0,0 0.53147,-0.41682 0.67127,-0.77102 v -0.0465 -0.18913 -0.0651 -0.0651 c -0.13049,-0.32533 -0.40105,-0.65021 -0.62476,-0.7984 v -0.007 -0.007 c 0,-0.009 -0.093,-0.0185 -0.10234,-0.0185 z m -21.22866,2.13218 -0.15089,0.005 c -0.057,0.12755 -0.13295,0.30348 -0.20569,0.47077 0.11504,-0.15716 0.22736,-0.3139 0.35658,-0.47543 z m -0.35658,0.47543 c -0.5489,0.74977 -0.94927,1.45166 -1.21129,2.08772 v 0.1116 c -0.89484,2.28102 -0.1398,3.71163 0.73639,3.64164 0.11187,-0.007 0.22402,-0.0465 0.33589,-0.10334 0.15846,-0.0839 0.31647,-0.20881 0.4563,-0.38965 v -0.0465 c 0.0932,-0.12118 0.17711,-0.26382 0.25167,-0.42789 v -0.0651 c 0,-0.0746 0.0935,-0.14991 0.0935,-0.23101 v -0.0842 c 0,-0.0839 0.093,-0.16973 0.093,-0.26202 v -0.093 c 0.0932,-0.22186 0.11205,-0.46702 0.14933,-0.73639 -0.12118,0.26472 -0.27964,0.58748 -0.48472,0.82889 0,0.0185 0,0.0372 -0.0935,0.0465 -0.0932,0.0652 -0.13009,0.1229 -0.20465,0.16949 0,0.009 0,0.0279 -0.0935,0.0372 -0.0932,0.028 -0.10224,0.0465 -0.14883,0.0651 -0.0932,0.0185 -0.112,0.0284 -0.16793,0.0284 -0.15846,0.009 -0.33549,-0.0282 -0.53123,-0.13538 -0.2703,-0.14264 -0.34478,-0.52666 -0.28887,-1.02889 v -0.0837 c 0.0932,-0.59566 0.30744,-1.33697 0.55911,-2.03502 0,-0.0652 0.093,-0.13031 0.093,-0.19275 0.16,-0.41288 0.31499,-0.77679 0.4563,-1.10172 z m -21.92115,-0.24392 c 0.049,0.0474 0.0888,0.0973 0.13592,0.1452 l 0.009,-0.1452 z m 0.13592,0.1452 -0.0837,1.3348 c 0.80164,0.61706 1.25452,1.35551 1.49966,2.16937 v 0.10853 c 0.19577,0.71311 0.24241,1.48005 0.21445,2.26602 v 0.23461 c 0,0.63048 -0.0853,1.27122 -0.14418,1.90529 0.15632,-0.56401 0.28885,-1.12067 0.37725,-1.66603 v -0.14263 c 0.13052,-0.85945 0.14914,-1.69254 0,-2.48979 v -0.13485 c 0,-0.13235 -0.0935,-0.26326 -0.0935,-0.39378 v -0.12661 c -0.0932,-0.25913 -0.13989,-0.51615 -0.23307,-0.76689 0,-0.0373 1.5e-4,-0.0843 -0.093,-0.12348 -0.30462,-0.7738 -0.77994,-1.49926 -1.44383,-2.17456 z m 1.48621,8.01862 c -0.008,0.0307 -0.0151,0.0607 -0.0238,0.0915 v 0.14988 c 0.006,-0.08 0.0164,-0.16107 0.0238,-0.24135 z m 46.56048,-4.60176 -0.093,1.48 c 1.08617,0.83716 1.53033,1.90555 1.68206,3.07215 l 0.43202,-0.11626 c -0.0982,-1.63578 -0.6821,-3.14102 -2.01745,-4.43589 z m -52.37459,0.0511 c 0.0106,0.0212 0.0164,0.0424 0.0249,0.0636 0.0282,-0.0185 0.0573,-0.035 0.0853,-0.0543 z m 0.0249,0.0636 c -0.55515,0.366 -1.15382,0.62468 -1.54149,1.40248 -0.69908,1.20552 -1.03756,2.52671 -1.48778,3.81529 0.31692,0.78393 0.74597,0.92657 1.31363,0.91725 0.0932,0 0.18632,-0.007 0.27956,-0.0185 0.31692,-0.0185 0.68059,-0.0651 1.07953,-0.0558 -0.8296,1.43584 -2.10701,1.98086 -3.27681,2.7399 0.0932,-0.0185 0.13062,-0.0465 0.19587,-0.0651 0.99274,-0.32065 1.98546,-0.57219 2.97913,-1.05574 0.45675,-0.76343 0.81134,-1.36649 1.11053,-2.09291 0,-0.0652 0.093,-0.12205 0.093,-0.18449 0.0932,-0.18738 0.13989,-0.38402 0.20513,-0.59375 l -0.33589,-0.80926 -2.19675,0.0284 -0.37312,-0.509 c 0.50335,-0.86315 0.99214,-1.58258 1.62317,-1.42627 v 0.007 c 0.0932,0.0185 0.11152,0.0372 0.16743,0.0651 v -0.0651 -0.0744 c 0.18642,-0.46514 0.24238,-0.92959 0.23307,-1.39528 v -0.13902 c 0,-0.16338 -0.004,-0.32737 -0.0682,-0.4909 z m 41.20163,0.5276 c -0.35419,0.19016 -0.59653,0.50298 -0.7643,0.87025 v 0.0656 c -0.0932,0.18643 -0.1492,0.38643 -0.21444,0.58963 v 0.13538 0.13489 c -0.1305,0.46791 -0.2049,1.06947 -0.33539,1.53789 -0.21439,-0.48194 -0.4381,-1.00682 -0.73639,-1.47587 0,-0.0373 0,-0.0652 -0.0935,-0.0997 -0.37285,-0.55928 -0.83867,-1.02891 -1.49862,-1.23714 -0.0932,0.16404 -0.15852,0.3198 -0.21445,0.46614 v 0.0651 0.12297 0.0651 c 0,0.1016 -0.093,0.20328 -0.093,0.30488 0.0932,0.12303 0.11145,0.22947 0.18603,0.31988 v 0.0279 c 0.18643,0.21254 0.40116,0.3365 0.56896,0.40826 1.09151,-0.69911 1.37856,1.71846 1.65727,2.52438 0.22371,-0.33834 0.24199,-0.57266 0.40979,-1.05627 0,0 0.35436,-1.32394 0.43823,-1.61438 0.10252,-0.33184 0.43828,-1.19856 0.65267,-1.19112 0.18643,0.007 0.30732,0.0655 0.39119,0.15036 v 0.018 c 0.11186,0.12213 0.17756,0.28657 0.28009,0.41238 0.0932,-0.16497 0.17661,-0.2884 0.22323,-0.41238 v -0.0279 -0.13849 -0.0284 c 0,-0.0979 2.1e-4,-0.20976 -0.093,-0.34677 v -0.0465 c -0.1398,-0.24328 -0.31702,-0.45744 -0.68987,-0.53948 z m 4.76303,5.02865 c -0.21029,1.3e-4 -0.59629,0.3651 -1.15964,1.0945 -0.0214,0.0214 -0.12012,0.22947 -0.15399,0.28422 l 1.37046,-0.36846 c 0.0546,-0.21736 0.1323,-0.46112 0.1323,-0.61651 0,-0.26249 -0.063,-0.39386 -0.18913,-0.39375 z m -59.02174,2.53989 -0.093,1.48 c 2.22687,1.71569 1.77953,4.39386 1.57353,6.92515 0,-0.0466 -1.6e-4,-0.0968 0.093,-0.14623 0.24236,-0.84452 0.41947,-1.66987 0.49403,-2.47012 v -0.14264 c 0.0932,-0.60963 0,-1.20499 0,-1.78078 v -0.13126 c -0.0932,-0.44087 -0.17693,-0.8708 -0.33539,-1.28725 0,-0.0373 3e-5,-0.0838 -0.0935,-0.12298 -0.32623,-0.82865 -0.8387,-1.60867 -1.57975,-2.32389 z m 31.55572,4.53978 c -0.26099,0.0373 -0.93411,0.58975 -1.12242,1.20972 -0.0577,0.19011 -0.0608,0.32412 -0.0403,0.43514 l 0.81391,-0.21913 c -0.0654,-0.0579 -0.1162,-0.11967 -0.13951,-0.19275 v -0.0185 -0.0377 -0.0185 -0.0372 -0.0372 c 0,-0.21066 0.13051,-0.42524 0.24235,-0.50075 v -0.009 c 0,-0.009 0.093,-0.0185 0.093,-0.0185 0.10253,0.0185 0.17714,0.0371 0.22376,0.0744 v 0.007 c 0,0.028 0.093,0.065 0.093,0.1116 v 0.0657 0.13126 c 0,0 0.16775,-0.12859 0.26096,-0.26562 v -0.0185 -0.0558 -0.0558 -0.0656 c 0,-0.0652 -0.093,-0.13031 -0.093,-0.19275 v -0.0279 c -0.0932,-0.0746 -0.10271,-0.13517 -0.15865,-0.18087 v -0.018 -0.0185 c 0,-0.007 1.9e-4,-0.009 -0.093,-0.009 z m 0.93739,0.78393 -0.48884,0.42736 0.4346,-0.11679 z m -30.68132,6.83781 -0.0837,0.004 c 0.0103,-0.005 0.0403,-0.004 0.0677,0 0.005,0 0.0117,-0.004 0.0161,-0.004 z m -0.0161,0.005 c -0.46797,0.0477 -1.70207,1.0673 -2.04534,2.20347 -0.007,0.0233 -0.004,0.0358 -0.0108,0.0584 l 0.86092,-0.23152 v -0.0455 -0.0656 c 0,-0.38405 0.25178,-0.77518 0.44752,-0.91313 v -0.0185 c 0.0932,-0.028 0.10223,-0.0374 0.13951,-0.0185 0,0.007 0.0935,0.009 0.0935,0.0185 0.0932,0.009 0.13013,0.0279 0.18606,0.0465 v 0.009 c 0,0.0185 0.0935,0.0372 0.10282,0.0558 v 0.018 c 0.13049,0.10814 0.15851,0.27991 0.22375,0.56327 0,0 0.45657,-0.35591 0.57775,-0.65886 v -0.0377 -0.16227 -0.0651 -0.0558 c -0.11187,-0.27776 -0.34483,-0.55539 -0.53123,-0.68213 0,-0.008 -0.022,-0.014 -0.0444,-0.0177 z" />
  </g>
</svg>
