<?xml version="1.0" encoding="UTF-8" standalone="no"?>
<!-- Created with Inkscape (http://www.inkscape.org/) -->

<svg
   width="2.085434mm"
   height="3.0861816mm"
   viewBox="0 0 2.085434 3.0861816"
   version="1.1"
   id="svg13504"
   xmlns="http://www.w3.org/2000/svg"
   xmlns:svg="http://www.w3.org/2000/svg">
  <defs
     id="defs13501" />
  <g
     id="layer1"
     transform="translate(-208.72703,-477.72865)">
    <path
       id="path142723"
       style="vector-effect:none;fill:#ffffff;fill-opacity:1;fill-rule:evenodd;stroke-width:0.0473284;stroke-linecap:butt;stroke-linejoin:miter;stroke-miterlimit:4;stroke-dasharray:none;stroke-dashoffset:0;stroke-opacity:1"
       d="m 209.7701,477.72865 c -0.57609,2e-5 -1.04308,0.46701 -1.04308,1.04308 0,0.0966 0.0139,0.19283 0.0406,0.28573 l 0.004,0.0151 c 0.0461,0.15316 1.00064,1.74227 1.00064,1.74227 0,0 0.94651,-1.58521 0.99159,-1.72666 l 0.008,-0.0307 c 0.0266,-0.0929 0.0403,-0.18908 0.0406,-0.28572 0,-0.57609 -0.467,-1.04308 -1.04308,-1.04309 z m 0,0.44398 a 0.50385598,0.50385598 0 0 1 0.50388,0.50389 0.50385598,0.50385598 0 0 1 -0.50388,0.50387 0.50385598,0.50385598 0 0 1 -0.50387,-0.50387 0.50385598,0.50385598 0 0 1 0.50387,-0.50389 z" />
  </g>
</svg>
