<svg width="60.931" height="12.166" viewBox="0 0 60.931 12.166" version="1.1" id="svg13504" xmlns="http://www.w3.org/2000/svg"><g id="layer1" transform="translate(-30.049 -474.358)"><g aria-label="v" id="v" style="font-size:32.0046px;line-height:1.2;font-family:Agent;-inkscape-font-specification:Agent;letter-spacing:0;fill:#fff;stroke-width:.480824;stroke-linejoin:bevel;paint-order:stroke fill markers;stop-color:#000"><path d="M49.414 478.203q-.781 0-1.344-.563-.562-.563-.562-1.344 0-.813.562-1.375.563-.563 1.344-.563.813 0 1.375.563.563.562.563 1.344 0 .812-.563 1.375-.562.563-1.375.563zm-2.47 2.687q.407.844.407 1.72 0 .5-.125 1.03-.375 1.439-1.594 2.251l-5.813-11.533h3.844q1.094 2.188 3.282 6.532z" style="stroke-width:.480825" id="path7235"/></g><g aria-label="v" transform="scale(-1)" id="a" style="font-size:32.0046px;line-height:1.2;font-family:Agent;-inkscape-font-specification:Agent;letter-spacing:0;fill:#fff;stroke-width:.480824;stroke-linejoin:bevel;paint-order:stroke fill markers;stop-color:#000"><path d="M-31.986-482.68q-.782 0-1.344-.563-.563-.562-.563-1.343 0-.813.563-1.376.562-.562 1.344-.562.812 0 1.375.562.562.563.562 1.344 0 .813-.562 1.375-.563.563-1.375.563zm-2.47 2.688q.407.844.407 1.719 0 .5-.125 1.031-.375 1.438-1.594 2.25l-5.814-11.532h3.845q1.094 2.188 3.281 6.532z" style="stroke-width:.480825" id="path7238"/></g><path id="alaturka" style="font-weight:700;font-size:4.92637px;line-height:1.2;font-family:Jost;-inkscape-font-specification:'Jost Bold';letter-spacing:1.44679px;fill:#fff;stroke-width:.0740119;stroke-linejoin:bevel;paint-order:stroke fill markers" d="M88.26 477.743h1.823l-.054-.635h-1.71zm.902-1.517.488 1.118-.03.212.414.852h.946l-1.818-3.665-1.813 3.665h.941l.429-.886-.04-.183zm-6.334-1.266v3.448h.863v-3.448zm2.035 0-1.414 1.64 1.453 1.808h1.01l-1.473-1.832 1.4-1.616zm-5.812 1.887.971 1.561h.975l-1.078-1.561zm-.857-1.887v3.448h.833v-3.448zm.522.704h.675q.168 0 .286.055.123.054.187.157.064.099.064.242t-.064.246q-.064.099-.187.153-.118.049-.286.049h-.675v.645h.735q.443 0 .738-.142.296-.143.449-.395.152-.256.152-.586 0-.335-.152-.586-.153-.256-.449-.4-.295-.142-.738-.142h-.735zm-5.447-.704v2.315q0 .326.104.567.108.241.296.399.192.153.443.231.251.08.542.08.29 0 .542-.08.256-.078.443-.231.192-.158.296-.4.108-.24.108-.566v-2.315h-.833v2.256q0 .261-.137.424-.138.163-.42.163-.275 0-.413-.163-.138-.163-.138-.424v-2.256zm-4.53.744h.946v2.704h.832v-2.704h.951v-.744h-2.73zm-3.836 2.04h1.822l-.054-.636h-1.71zm.901-1.518.488 1.118-.03.212.414.852h.946l-1.818-3.665-1.813 3.665h.941l.429-.886-.04-.183zm-5.639-1.266v3.448h2.217v-.714h-1.384v-2.734zm-4.526 2.783h1.823l-.054-.635h-1.71zm.902-1.517.488 1.118-.03.212.414.852h.946l-1.818-3.665-1.813 3.665h.94l.43-.886-.04-.183z"/><path id="vakitler" style="font-weight:300;font-size:4.37951px;line-height:1.2;font-family:Jost;-inkscape-font-specification:'Jost Light';letter-spacing:1.28618px;fill:#fff;stroke-width:.0657964;stroke-linejoin:bevel;paint-order:stroke fill markers" d="m79.114 483.665 1.016 1.463h.297l-1.046-1.463zm-.522-1.603v3.066h.241v-3.066zm.127.215h.574q.232 0 .412.079.18.079.28.228.105.148.105.367 0 .22-.1.373-.101.149-.285.227-.18.075-.412.075h-.574v.215h.574q.298 0 .53-.101.236-.105.372-.307.136-.201.136-.481 0-.285-.136-.482t-.372-.302q-.232-.106-.53-.106h-.574zm-3.624 2.851h1.52v-.228h-1.52zm0-2.838h1.52v-.228h-1.52zm0 1.27h1.432v-.227h-1.432zm-.127-1.498v3.066h.24v-3.066zm-3.222 0v3.066h1.506v-.228h-1.266v-2.838zm-3.568.228h.806v2.838h.24v-2.838h.806v-.228h-1.852zm-1.948-.228v3.066h.241v-3.066zm-.044-.477q0 .066.049.114.048.048.113.048.07 0 .119-.048.048-.048.048-.114 0-.07-.048-.118-.048-.048-.119-.048-.065 0-.113.048-.049.048-.049.118zm-3.524.477v3.066h.241v-3.066zm1.511 0-1.34 1.441 1.406 1.625h.307l-1.415-1.63 1.349-1.436zm-5.328 2.037h1.572l-.079-.228h-1.414zm.78-1.599.604 1.463.022.057.455 1.108h.272l-1.354-3.184-1.353 3.184h.272l.46-1.125.026-.053zm-3.722 2.186-1.082-2.624h-.271l1.353 3.184 1.353-3.184h-.271z"/></g></svg>
