<svg width="151.83" height="22.84" viewBox="0 0 151.83 22.84" xmlns="http://www.w3.org/2000/svg"><path style="font-weight:900;font-size:29.2386px;line-height:1.2;font-family:Jost;-inkscape-font-specification:'Jost Heavy';letter-spacing:8.58683px;fill:#fff;stroke-width:.439269;stroke-linejoin:bevel;paint-order:stroke fill markers" d="M675.45 1045.285h10.818v-4.62H675.45Zm5.35-8.538 2.515 5.643-.438 1.667 2.163 3.86h7.31l-11.55-21.93-11.548 21.93h7.31l2.221-4.065-.497-1.462zm-40.778-9.298v20.467h6.725v-20.467zm13.011 0-8.128 9.795 8.275 10.672h7.777l-8.42-10.876 7.982-9.59zm-36.07 11.696 4.97 8.771h7.456l-5.848-8.771zm-5.995-11.696v20.467h6.433v-20.467zm4.152 5.41h3.89q.818 0 1.344.233.526.205.79.644.292.409.292 1.023 0 .585-.293 1.023-.263.439-.789.673-.526.205-1.345.205h-3.889v4.824h4.474q3.011 0 4.883-.906 1.9-.907 2.777-2.486.907-1.608.907-3.625 0-2.047-.907-3.626-.877-1.579-2.777-2.485-1.872-.907-4.883-.907h-4.474zm-34.697-5.41v13.742q0 2.193.702 3.714.731 1.491 1.988 2.427 1.258.906 2.866 1.315 1.637.439 3.45.439 1.813 0 3.42-.439 1.638-.409 2.896-1.315 1.257-.936 1.959-2.427.73-1.52.73-3.714v-13.742h-6.432v13.158q0 1.228-.643 2.017-.614.76-1.93.76-1.316 0-1.959-.76-.614-.79-.614-2.017v-13.158zm-28.615 5.702h5.848v14.765h6.432v-14.765h5.848v-5.702h-18.128zm-23.294 12.134h10.819v-4.62h-10.819zm5.351-8.538 2.515 5.643-.439 1.667 2.164 3.86h7.31l-11.55-21.93-11.55 21.93h7.31l2.223-4.065-.497-1.462zm-35.632-9.298v20.467h14.765v-5.409h-8.333v-15.058zm-27.388 17.836h10.819v-4.62h-10.819zm5.351-8.538 2.515 5.643-.439 1.667 2.164 3.86h7.31l-11.55-21.93-11.55 21.93h7.31l2.223-4.065-.497-1.462z" transform="matrix(.44 0 0 .44 -152.808 -451.441)"/><path style="font-weight:900;font-size:18.6528px;line-height:1.2;font-family:Jost;-inkscape-font-specification:'Jost Heavy';letter-spacing:5.47798px;fill:#fff;stroke-width:.280231;stroke-linejoin:bevel;paint-order:stroke fill markers" d="m590.627 1070.086 3.171 5.596h4.757l-3.73-5.596zm-3.824-7.46v13.056h4.104v-13.057zm2.65 3.45h2.48q.522 0 .858.15.336.13.504.41.186.26.186.653 0 .373-.186.652-.168.28-.504.43-.336.13-.858.13h-2.48v3.078h2.853q1.921 0 3.115-.578 1.212-.579 1.772-1.586.578-1.026.578-2.313 0-1.306-.578-2.313-.56-1.007-1.772-1.585-1.194-.579-3.115-.579h-2.854zm-17.137 9.606h6.585v-3.264h-6.585zm0-9.792h6.585v-3.265h-6.585zm0 4.663h6.212v-3.171h-6.212zm-2.835-7.928v13.057h3.917v-13.057zm-16.203 0v13.057h9.42v-3.45h-5.317v-9.607zm-18.349 3.638h3.73v9.42h4.104v-9.42h3.731v-3.638h-11.565zm-10.98-3.638v13.057h4.197v-13.057zm.074-3.32q0 .82.579 1.324.596.504 1.436.504t1.417-.504q.597-.503.597-1.324 0-.82-.597-1.324-.578-.504-1.417-.504-.84 0-1.436.504-.579.503-.579 1.324zm-20.12 3.32v13.057h4.29v-13.057zm8.3 0-5.185 6.25 5.279 6.807h4.961l-5.372-6.939 5.093-6.118zm-25.772 11.379h6.902v-2.947h-6.902zm3.414-5.447 1.604 3.6-.28 1.063 1.38 2.462h4.664l-7.368-13.99-7.368 13.99h4.663l1.418-2.592-.317-.933zm-17.23.448-2.518-6.38h-4.85l7.368 13.99 7.368-13.99h-4.85z" transform="matrix(.44 0 0 .44 -152.808 -451.441)"/><g style="fill:#fff"><g style="font-size:133.004px;line-height:1.2;font-family:Agent;-inkscape-font-specification:Agent;letter-spacing:0;fill:#fff;stroke-width:1.99819;stroke-linejoin:bevel;paint-order:stroke fill markers;stop-color:#000"><path d="M427.765 910.773q-3.247 0-5.585-2.338t-2.338-5.585q0-3.377 2.338-5.715t5.585-2.338q3.377 0 5.715 2.338t2.338 5.585q0 3.377-2.338 5.715t-5.715 2.338zm-10.261 11.17q1.688 3.507 1.688 7.144 0 2.078-.52 4.286-1.558 5.975-6.623 9.352l-24.16-47.928h15.977q4.546 9.092 13.638 27.146z" style="fill:#fff" transform="matrix(.44 0 0 .44 -152.808 -393.123)" aria-label="v"/></g><g style="font-size:133.004px;line-height:1.2;font-family:Agent;-inkscape-font-specification:Agent;letter-spacing:0;fill:#fff;stroke-width:1.99819;stroke-linejoin:bevel;paint-order:stroke fill markers;stop-color:#000"><path d="M-355.34-929.38q-3.247 0-5.585-2.338t-2.338-5.585q0-3.377 2.338-5.715t5.585-2.338q3.377 0 5.715 2.338t2.338 5.585q0 3.377-2.338 5.715t-5.715 2.338zm-10.26 11.17q1.688 3.507 1.688 7.144 0 2.078-.52 4.286-1.558 5.975-6.624 9.352l-24.159-47.928h15.976q4.546 9.092 13.638 27.146z" style="fill:#fff" transform="matrix(-.44 0 0 -.44 -152.808 -393.123)" aria-label="v"/></g></g></svg>
