<?xml version="1.0" encoding="UTF-8" standalone="no"?>
<!-- Created with Inkscape (http://www.inkscape.org/) -->

<svg
   width="42.031242mm"
   height="27.0625mm"
   viewBox="0 0 42.031242 27.0625"
   version="1.1"
   id="svg13504"
   xmlns="http://www.w3.org/2000/svg"
   xmlns:svg="http://www.w3.org/2000/svg">
  <defs
     id="defs13501" />
  <g
     id="layer1"
     transform="translate(93.00976,-550.77147)">
    <path
       id="path47500-0"
       style="opacity:1;fill:#f9f1f2;fill-opacity:1;fill-rule:evenodd;stroke-width:0.259253"
       d="m -93.009766,550.77148 h 3.113282 v 10.59571 h -3.113282 v -7.60352 h 2.996094 v -2.87305 h -2.996094 z m 5.988282,0 h 0.11914 V 561.25 h 5.986328 v 0.11719 h -6.105468 z m 2.99414,0 h 3.111328 v 7.60352 h -3.111328 v -4.61133 h 2.994141 v -2.87305 h -2.994141 z m 5.986328,0 h 0.119141 v 2.99219 h 2.992187 v 0.1211 h -2.992187 V 561.25 h 2.875 v -4.49219 h 0.117187 v 4.60938 h -3.111328 z m 2.994141,0 h 3.113281 v 0.11914 h -3.113281 z m 5.986328,0 h 0.121094 v 10.59571 h -3.113281 v -7.60352 h 0.11914 V 561.25 h 2.873047 z m 2.994141,0 h 3.113281 v 4.60938 h -0.119141 v -4.49024 h -2.875 v 13.47071 h -0.11914 z m 5.986328,0 h 0.121094 v 2.99219 h 2.873046 v -2.99219 h 0.119141 v 3.11329 h -2.992187 v 2.87304 h 2.992187 v 4.60938 h -0.119141 v -4.49024 h -2.873046 v 4.49024 h -0.121094 z m 5.988281,0 h 3.113281 v 10.59571 h -3.113281 v -7.60352 h 2.992188 v -2.87305 h -2.992188 z m -38.798828,3.11329 V 561.25 h 2.876953 v -7.36523 z m 8.980469,0 v 4.36914 h 2.876953 v -4.36914 z m 29.9375,0 V 561.25 h 2.873047 v -7.36523 z m -9.09961,4.36914 h 0.119141 v 16.46679 h 5.986328 v 0.11719 h -6.105469 z m -29.9375,5.99023 h 3.113282 v 10.47656 h 2.875 v -10.47656 h 0.11914 v 10.59375 h -3.111328 v -10.47656 h -2.996094 z m 8.982422,0 h 3.111328 v 10.59375 h -3.111328 v -7.60156 h 2.994141 v -2.875 h -2.994141 z m 5.986328,0 h 0.119141 v 2.99219 h 2.875 v -2.99219 h 0.117187 v 3.11133 h -2.992187 v 2.875 h 2.992187 v 4.60742 h -0.117187 v -4.49023 h -2.875 v 4.49023 h -0.119141 z m 5.988282,0 h 0.11914 v 0.11719 h -0.11914 z m 2.992187,0 h 0.121094 v 2.99219 h 2.992187 v 0.11914 h -2.992187 v 7.36523 h 2.873047 v -4.49023 h 0.11914 v 4.60742 h -3.113281 z m 8.980469,0 h 3.113281 v 4.60742 h -2.992187 v 2.875 h 2.992187 v 0.11914 h -3.113281 z m 5.988281,0 h 3.113281 v 0.11719 h -2.99414 v 10.47656 h -0.119141 z m -5.867187,0.11719 v 4.37305 h 2.873046 v -4.37305 z m -33.050782,2.875 h 0.119141 v 10.47851 h 41.791016 v -10.47851 h 0.121093 v 10.59765 h -42.03125 z m 20.957032,0 h 0.11914 v 7.60156 h -0.11914 z m -11.857422,0.11914 v 7.36523 h 2.876953 v -7.36523 z" />
  </g>
</svg>
