<?xml version="1.0" encoding="UTF-8" standalone="no"?>
<!-- Created with Inkscape (http://www.inkscape.org/) -->

<svg
   width="9.4458389mm"
   height="8.973525mm"
   viewBox="0 0 9.4458389 8.973525"
   version="1.1"
   id="svg13504"
   xmlns="http://www.w3.org/2000/svg"
   xmlns:svg="http://www.w3.org/2000/svg">
  <defs
     id="defs13501" />
  <g
     id="layer1"
     transform="translate(63.219739,-707.5648)">
    <g
       id="g64664"
       transform="matrix(1.7850357,0,0,1.7850357,1447.3286,-430.42545)"
       style="fill:#ffffff;fill-opacity:1">
      <path
         d="m -842.25989,640.16263 h -2.64584 c -0.29236,0 -0.52916,0.2368 -0.52916,0.52917 v 1.85208 h 3.70416 v -1.85208 c 0,-0.29237 -0.2368,-0.52917 -0.52916,-0.52917 z"
         opacity="0.35"
         id="path64650"
         style="fill:#ffffff;fill-opacity:1;stroke-width:0.264583" />
      <path
         d="m -844.11198,642.54388 v -0.79375 c 0,-0.52917 0.52917,-0.79375 0.52917,-0.79375 0,0 0.52917,0.26458 0.52917,0.79375 v 0.79375 z"
         id="path64652"
         style="fill:#ffffff;fill-opacity:1;stroke-width:0.264583" />
      <path
         d="m -842.4451,640.16263 c 0.10583,-0.15875 0.18521,-0.34396 0.18521,-0.52917 0,-0.63844 -0.85567,-1.12448 -1.19063,-1.29011 -0.0839,-0.0415 -0.18071,-0.0415 -0.26432,0 -0.33522,0.16563 -1.19089,0.65167 -1.19089,1.29011 0,0.18521 0.0794,0.37042 0.18521,0.52917 z"
         id="path64654"
         style="fill:#ffffff;fill-opacity:1;stroke-width:0.264583" />
      <rect
         width="0.79374999"
         height="3.96875"
         x="-841.73071"
         y="638.57513"
         id="rect64656"
         style="fill:#ffffff;fill-opacity:1;stroke-width:0.264583" />
      <polygon
         points="20.5,3 19,7 22,7 "
         opacity="0.35"
         id="polygon64658"
         transform="matrix(0.26458333,0,0,0.26458333,-846.75781,636.72305)"
         style="fill:#ffffff;fill-opacity:1" />
      <rect
         width="0.79374999"
         height="3.96875"
         x="-846.22864"
         y="638.57513"
         id="rect64660"
         style="fill:#ffffff;fill-opacity:1;stroke-width:0.264583" />
      <polygon
         points="3.5,3 2,7 5,7 "
         opacity="0.35"
         id="polygon64662"
         transform="matrix(0.26458333,0,0,0.26458333,-846.75781,636.72305)"
         style="fill:#ffffff;fill-opacity:1" />
    </g>
  </g>
</svg>
