<?xml version="1.0" encoding="UTF-8" standalone="no"?>
<!-- Created with Inkscape (http://www.inkscape.org/) -->

<svg
   width="9.4458389mm"
   height="9.4458389mm"
   viewBox="0 0 9.4458389 9.4458389"
   version="1.1"
   id="svg13504"
   xmlns="http://www.w3.org/2000/svg"
   xmlns:svg="http://www.w3.org/2000/svg">
  <defs
     id="defs13501" />
  <g
     id="layer1"
     transform="translate(34.986746,-707.32863)">
    <g
       id="g64642"
       transform="matrix(1.1693694,0,0,1.1693694,941.23853,-48.442962)"
       style="fill:#ffffff;fill-opacity:1">
      <path
         d="m -828.0991,654.38469 h -5.38514 c -0.74359,0 -1.34629,-0.60269 -1.34629,-1.34629 v -4.93637 h 8.07772 v 4.93637 c 0,0.7436 -0.60269,1.34629 -1.34629,1.34629 z"
         opacity="0.35"
         id="path64618"
         style="fill:#ffffff;fill-opacity:1;stroke-width:0.448761" />
      <path
         d="m -828.0991,646.30697 h -5.38514 c -0.74359,0 -1.34629,0.6027 -1.34629,1.34629 v 0.44877 h 8.07772 v -0.44877 c 0,-0.74359 -0.60269,-1.34629 -1.34629,-1.34629 z"
         id="path64620"
         style="fill:#ffffff;fill-opacity:1;stroke-width:0.448761" />
      <circle
         cx="-829.89417"
         cy="653.03839"
         r="0.44876173"
         id="circle64622"
         style="fill:#ffffff;fill-opacity:1;stroke-width:0.448761" />
      <circle
         cx="-831.68921"
         cy="653.03839"
         r="0.44876173"
         id="circle64624"
         style="fill:#ffffff;fill-opacity:1;stroke-width:0.448761" />
      <circle
         cx="-833.48419"
         cy="653.03839"
         r="0.44876173"
         id="circle64626"
         style="fill:#ffffff;fill-opacity:1;stroke-width:0.448761" />
      <circle
         cx="-833.48419"
         cy="651.24335"
         r="0.44876173"
         id="circle64628"
         style="fill:#ffffff;fill-opacity:1;stroke-width:0.448761" />
      <circle
         cx="-831.68921"
         cy="651.24335"
         r="0.44876173"
         id="circle64630"
         style="fill:#ffffff;fill-opacity:1;stroke-width:0.448761" />
      <circle
         cx="-829.89417"
         cy="651.24335"
         r="0.44876173"
         id="circle64632"
         style="fill:#ffffff;fill-opacity:1;stroke-width:0.448761" />
      <circle
         cx="-828.09906"
         cy="651.24335"
         r="0.44876173"
         id="circle64634"
         style="fill:#ffffff;fill-opacity:1;stroke-width:0.448761" />
      <circle
         cx="-828.09906"
         cy="649.4483"
         r="0.44876173"
         id="circle64636"
         style="fill:#ffffff;fill-opacity:1;stroke-width:0.448761" />
      <circle
         cx="-829.89417"
         cy="649.4483"
         r="0.44876173"
         id="circle64638"
         style="fill:#ffffff;fill-opacity:1;stroke-width:0.448761" />
      <circle
         cx="-831.68921"
         cy="649.4483"
         r="0.44876173"
         id="circle64640"
         style="fill:#ffffff;fill-opacity:1;stroke-width:0.448761" />
    </g>
  </g>
</svg>
